solid OpenSCAD_Model
  facet normal 0.999507 -0 0.0314103
    outer loop
      vertex 27.4457 -26.5 74.2267
      vertex 27.5 -24.5 72.5
      vertex 27.4457 -24.5 74.2267
    endloop
  endfacet
  facet normal 0.999507 0 0.0314103
    outer loop
      vertex 27.5 -24.5 72.5
      vertex 27.4457 -26.5 74.2267
      vertex 27.5 -26.5 72.5
    endloop
  endfacet
  facet normal 0.995562 -0 0.0941092
    outer loop
      vertex 27.2832 -26.5 75.9467
      vertex 27.4457 -24.5 74.2267
      vertex 27.2832 -24.5 75.9467
    endloop
  endfacet
  facet normal 0.995562 0 0.0941092
    outer loop
      vertex 27.4457 -24.5 74.2267
      vertex 27.2832 -26.5 75.9467
      vertex 27.4457 -26.5 74.2267
    endloop
  endfacet
  facet normal 0.987688 -0 0.156434
    outer loop
      vertex 27.0129 -26.5 77.653
      vertex 27.2832 -24.5 75.9467
      vertex 27.0129 -24.5 77.653
    endloop
  endfacet
  facet normal 0.987688 0 0.156434
    outer loop
      vertex 27.2832 -24.5 75.9467
      vertex 27.0129 -26.5 77.653
      vertex 27.2832 -26.5 75.9467
    endloop
  endfacet
  facet normal 0.975917 -0 0.218142
    outer loop
      vertex 26.636 -26.5 79.339
      vertex 27.0129 -24.5 77.653
      vertex 26.636 -24.5 79.339
    endloop
  endfacet
  facet normal 0.975917 0 0.218142
    outer loop
      vertex 27.0129 -24.5 77.653
      vertex 26.636 -26.5 79.339
      vertex 27.0129 -26.5 77.653
    endloop
  endfacet
  facet normal 0.960294 -0 0.278991
    outer loop
      vertex 26.1541 -26.5 80.998
      vertex 26.636 -24.5 79.339
      vertex 26.1541 -24.5 80.998
    endloop
  endfacet
  facet normal 0.960294 0 0.278991
    outer loop
      vertex 26.636 -24.5 79.339
      vertex 26.1541 -26.5 80.998
      vertex 26.636 -26.5 79.339
    endloop
  endfacet
  facet normal 0.940881 -0 0.338738
    outer loop
      vertex 25.5689 -26.5 82.6234
      vertex 26.1541 -24.5 80.998
      vertex 25.5689 -24.5 82.6234
    endloop
  endfacet
  facet normal 0.940881 0 0.338738
    outer loop
      vertex 26.1541 -24.5 80.998
      vertex 25.5689 -26.5 82.6234
      vertex 26.1541 -26.5 80.998
    endloop
  endfacet
  facet normal 0.917754 -0 0.397149
    outer loop
      vertex 24.8827 -26.5 84.2089
      vertex 25.5689 -24.5 82.6234
      vertex 24.8827 -24.5 84.2089
    endloop
  endfacet
  facet normal 0.917754 0 0.397149
    outer loop
      vertex 25.5689 -24.5 82.6234
      vertex 24.8827 -26.5 84.2089
      vertex 25.5689 -26.5 82.6234
    endloop
  endfacet
  facet normal 0.891006 -0 0.453991
    outer loop
      vertex 24.0984 -26.5 85.7482
      vertex 24.8827 -24.5 84.2089
      vertex 24.0984 -24.5 85.7482
    endloop
  endfacet
  facet normal 0.891006 0 0.453991
    outer loop
      vertex 24.8827 -24.5 84.2089
      vertex 24.0984 -26.5 85.7482
      vertex 24.8827 -26.5 84.2089
    endloop
  endfacet
  facet normal 0.860742 -0 0.509041
    outer loop
      vertex 23.219 -26.5 87.2352
      vertex 24.0984 -24.5 85.7482
      vertex 23.219 -24.5 87.2352
    endloop
  endfacet
  facet normal 0.860742 0 0.509041
    outer loop
      vertex 24.0984 -24.5 85.7482
      vertex 23.219 -26.5 87.2352
      vertex 24.0984 -26.5 85.7482
    endloop
  endfacet
  facet normal 0.82708 -0 0.562084
    outer loop
      vertex 22.248 -26.5 88.6641
      vertex 23.219 -24.5 87.2352
      vertex 22.248 -24.5 88.6641
    endloop
  endfacet
  facet normal 0.82708 0 0.562084
    outer loop
      vertex 23.219 -24.5 87.2352
      vertex 22.248 -26.5 88.6641
      vertex 23.219 -26.5 87.2352
    endloop
  endfacet
  facet normal 0.790155 -0 0.612907
    outer loop
      vertex 21.1891 -26.5 90.0292
      vertex 22.248 -24.5 88.6641
      vertex 21.1891 -24.5 90.0292
    endloop
  endfacet
  facet normal 0.790155 0 0.612907
    outer loop
      vertex 22.248 -24.5 88.6641
      vertex 21.1891 -26.5 90.0292
      vertex 22.248 -26.5 88.6641
    endloop
  endfacet
  facet normal 0.75011 -0 0.661313
    outer loop
      vertex 20.0466 -26.5 91.325
      vertex 21.1891 -24.5 90.0292
      vertex 20.0466 -24.5 91.325
    endloop
  endfacet
  facet normal 0.75011 0 0.661313
    outer loop
      vertex 21.1891 -24.5 90.0292
      vertex 20.0466 -26.5 91.325
      vertex 21.1891 -26.5 90.0292
    endloop
  endfacet
  facet normal 0.707108 -0 0.707106
    outer loop
      vertex 18.825 -26.5 92.5466
      vertex 20.0466 -24.5 91.325
      vertex 18.825 -24.5 92.5466
    endloop
  endfacet
  facet normal 0.707108 0 0.707106
    outer loop
      vertex 20.0466 -24.5 91.325
      vertex 18.825 -26.5 92.5466
      vertex 20.0466 -26.5 91.325
    endloop
  endfacet
  facet normal 0.661313 0 0.75011
    outer loop
      vertex 17.5292 -24.5 93.6891
      vertex 18.825 -26.5 92.5466
      vertex 18.825 -24.5 92.5466
    endloop
  endfacet
  facet normal 0.661313 0 0.75011
    outer loop
      vertex 18.825 -26.5 92.5466
      vertex 17.5292 -24.5 93.6891
      vertex 17.5292 -26.5 93.6891
    endloop
  endfacet
  facet normal 0.612907 0 0.790155
    outer loop
      vertex 16.1641 -24.5 94.748
      vertex 17.5292 -26.5 93.6891
      vertex 17.5292 -24.5 93.6891
    endloop
  endfacet
  facet normal 0.612907 0 0.790155
    outer loop
      vertex 17.5292 -26.5 93.6891
      vertex 16.1641 -24.5 94.748
      vertex 16.1641 -26.5 94.748
    endloop
  endfacet
  facet normal 0.562082 0 0.827082
    outer loop
      vertex 14.7352 -24.5 95.719
      vertex 16.1641 -26.5 94.748
      vertex 16.1641 -24.5 94.748
    endloop
  endfacet
  facet normal 0.562082 0 0.827082
    outer loop
      vertex 16.1641 -26.5 94.748
      vertex 14.7352 -24.5 95.719
      vertex 14.7352 -26.5 95.719
    endloop
  endfacet
  facet normal 0.509042 0 0.860742
    outer loop
      vertex 13.2482 -24.5 96.5984
      vertex 14.7352 -26.5 95.719
      vertex 14.7352 -24.5 95.719
    endloop
  endfacet
  facet normal 0.509042 0 0.860742
    outer loop
      vertex 14.7352 -26.5 95.719
      vertex 13.2482 -24.5 96.5984
      vertex 13.2482 -26.5 96.5984
    endloop
  endfacet
  facet normal 0.45399 0 0.891007
    outer loop
      vertex 11.7089 -24.5 97.3827
      vertex 13.2482 -26.5 96.5984
      vertex 13.2482 -24.5 96.5984
    endloop
  endfacet
  facet normal 0.45399 0 0.891007
    outer loop
      vertex 13.2482 -26.5 96.5984
      vertex 11.7089 -24.5 97.3827
      vertex 11.7089 -26.5 97.3827
    endloop
  endfacet
  facet normal 0.397149 0 0.917754
    outer loop
      vertex 10.1234 -24.5 98.0689
      vertex 11.7089 -26.5 97.3827
      vertex 11.7089 -24.5 97.3827
    endloop
  endfacet
  facet normal 0.397149 0 0.917754
    outer loop
      vertex 11.7089 -26.5 97.3827
      vertex 10.1234 -24.5 98.0689
      vertex 10.1234 -26.5 98.0689
    endloop
  endfacet
  facet normal 0.338736 0 0.940881
    outer loop
      vertex 8.49797 -24.5 98.6541
      vertex 10.1234 -26.5 98.0689
      vertex 10.1234 -24.5 98.0689
    endloop
  endfacet
  facet normal 0.338736 0 0.940881
    outer loop
      vertex 10.1234 -26.5 98.0689
      vertex 8.49797 -24.5 98.6541
      vertex 8.49797 -26.5 98.6541
    endloop
  endfacet
  facet normal 0.278993 0 0.960293
    outer loop
      vertex 6.83897 -24.5 99.136
      vertex 8.49797 -26.5 98.6541
      vertex 8.49797 -24.5 98.6541
    endloop
  endfacet
  facet normal 0.278993 0 0.960293
    outer loop
      vertex 8.49797 -26.5 98.6541
      vertex 6.83897 -24.5 99.136
      vertex 6.83897 -26.5 99.136
    endloop
  endfacet
  facet normal 0.218143 0 0.975917
    outer loop
      vertex 5.15299 -24.5 99.5129
      vertex 6.83897 -26.5 99.136
      vertex 6.83897 -24.5 99.136
    endloop
  endfacet
  facet normal 0.218143 0 0.975917
    outer loop
      vertex 6.83897 -26.5 99.136
      vertex 5.15299 -24.5 99.5129
      vertex 5.15299 -26.5 99.5129
    endloop
  endfacet
  facet normal 0.156435 0 0.987688
    outer loop
      vertex 3.44666 -24.5 99.7832
      vertex 5.15299 -26.5 99.5129
      vertex 5.15299 -24.5 99.5129
    endloop
  endfacet
  facet normal 0.156435 0 0.987688
    outer loop
      vertex 5.15299 -26.5 99.5129
      vertex 3.44666 -24.5 99.7832
      vertex 3.44666 -26.5 99.7832
    endloop
  endfacet
  facet normal 0.0941049 0 0.995562
    outer loop
      vertex 1.72674 -24.5 99.9457
      vertex 3.44666 -26.5 99.7832
      vertex 3.44666 -24.5 99.7832
    endloop
  endfacet
  facet normal 0.0941049 0 0.995562
    outer loop
      vertex 3.44666 -26.5 99.7832
      vertex 1.72674 -24.5 99.9457
      vertex 1.72674 -26.5 99.9457
    endloop
  endfacet
  facet normal 0.0314124 0 0.999507
    outer loop
      vertex 1.68389e-15 -24.5 100
      vertex 1.72674 -26.5 99.9457
      vertex 1.72674 -24.5 99.9457
    endloop
  endfacet
  facet normal 0.0314124 0 0.999507
    outer loop
      vertex 1.72674 -26.5 99.9457
      vertex 1.68389e-15 -24.5 100
      vertex 1.68389e-15 -26.5 100
    endloop
  endfacet
  facet normal -0.0314124 0 0.999507
    outer loop
      vertex -1.72674 -24.5 99.9457
      vertex 1.68389e-15 -26.5 100
      vertex 1.68389e-15 -24.5 100
    endloop
  endfacet
  facet normal -0.0314124 0 0.999507
    outer loop
      vertex 1.68389e-15 -26.5 100
      vertex -1.72674 -24.5 99.9457
      vertex -1.72674 -26.5 99.9457
    endloop
  endfacet
  facet normal -0.0941049 0 0.995562
    outer loop
      vertex -3.44666 -24.5 99.7832
      vertex -1.72674 -26.5 99.9457
      vertex -1.72674 -24.5 99.9457
    endloop
  endfacet
  facet normal -0.0941049 0 0.995562
    outer loop
      vertex -1.72674 -26.5 99.9457
      vertex -3.44666 -24.5 99.7832
      vertex -3.44666 -26.5 99.7832
    endloop
  endfacet
  facet normal -0.156435 0 0.987688
    outer loop
      vertex -5.15299 -24.5 99.5129
      vertex -3.44666 -26.5 99.7832
      vertex -3.44666 -24.5 99.7832
    endloop
  endfacet
  facet normal -0.156435 0 0.987688
    outer loop
      vertex -3.44666 -26.5 99.7832
      vertex -5.15299 -24.5 99.5129
      vertex -5.15299 -26.5 99.5129
    endloop
  endfacet
  facet normal -0.218143 0 0.975917
    outer loop
      vertex -6.83897 -24.5 99.136
      vertex -5.15299 -26.5 99.5129
      vertex -5.15299 -24.5 99.5129
    endloop
  endfacet
  facet normal -0.218143 0 0.975917
    outer loop
      vertex -5.15299 -26.5 99.5129
      vertex -6.83897 -24.5 99.136
      vertex -6.83897 -26.5 99.136
    endloop
  endfacet
  facet normal -0.278993 0 0.960293
    outer loop
      vertex -8.49797 -24.5 98.6541
      vertex -6.83897 -26.5 99.136
      vertex -6.83897 -24.5 99.136
    endloop
  endfacet
  facet normal -0.278993 0 0.960293
    outer loop
      vertex -6.83897 -26.5 99.136
      vertex -8.49797 -24.5 98.6541
      vertex -8.49797 -26.5 98.6541
    endloop
  endfacet
  facet normal -0.338736 0 0.940881
    outer loop
      vertex -10.1234 -24.5 98.0689
      vertex -8.49797 -26.5 98.6541
      vertex -8.49797 -24.5 98.6541
    endloop
  endfacet
  facet normal -0.338736 0 0.940881
    outer loop
      vertex -8.49797 -26.5 98.6541
      vertex -10.1234 -24.5 98.0689
      vertex -10.1234 -26.5 98.0689
    endloop
  endfacet
  facet normal -0.397149 0 0.917754
    outer loop
      vertex -11.7089 -24.5 97.3827
      vertex -10.1234 -26.5 98.0689
      vertex -10.1234 -24.5 98.0689
    endloop
  endfacet
  facet normal -0.397149 0 0.917754
    outer loop
      vertex -10.1234 -26.5 98.0689
      vertex -11.7089 -24.5 97.3827
      vertex -11.7089 -26.5 97.3827
    endloop
  endfacet
  facet normal -0.45399 0 0.891007
    outer loop
      vertex -13.2482 -24.5 96.5984
      vertex -11.7089 -26.5 97.3827
      vertex -11.7089 -24.5 97.3827
    endloop
  endfacet
  facet normal -0.45399 0 0.891007
    outer loop
      vertex -11.7089 -26.5 97.3827
      vertex -13.2482 -24.5 96.5984
      vertex -13.2482 -26.5 96.5984
    endloop
  endfacet
  facet normal -0.509042 0 0.860742
    outer loop
      vertex -14.7352 -24.5 95.719
      vertex -13.2482 -26.5 96.5984
      vertex -13.2482 -24.5 96.5984
    endloop
  endfacet
  facet normal -0.509042 0 0.860742
    outer loop
      vertex -13.2482 -26.5 96.5984
      vertex -14.7352 -24.5 95.719
      vertex -14.7352 -26.5 95.719
    endloop
  endfacet
  facet normal -0.562082 0 0.827082
    outer loop
      vertex -16.1641 -24.5 94.748
      vertex -14.7352 -26.5 95.719
      vertex -14.7352 -24.5 95.719
    endloop
  endfacet
  facet normal -0.562082 0 0.827082
    outer loop
      vertex -14.7352 -26.5 95.719
      vertex -16.1641 -24.5 94.748
      vertex -16.1641 -26.5 94.748
    endloop
  endfacet
  facet normal -0.612907 0 0.790155
    outer loop
      vertex -17.5292 -24.5 93.6891
      vertex -16.1641 -26.5 94.748
      vertex -16.1641 -24.5 94.748
    endloop
  endfacet
  facet normal -0.612907 0 0.790155
    outer loop
      vertex -16.1641 -26.5 94.748
      vertex -17.5292 -24.5 93.6891
      vertex -17.5292 -26.5 93.6891
    endloop
  endfacet
  facet normal -0.661313 0 0.75011
    outer loop
      vertex -18.825 -24.5 92.5466
      vertex -17.5292 -26.5 93.6891
      vertex -17.5292 -24.5 93.6891
    endloop
  endfacet
  facet normal -0.661313 0 0.75011
    outer loop
      vertex -17.5292 -26.5 93.6891
      vertex -18.825 -24.5 92.5466
      vertex -18.825 -26.5 92.5466
    endloop
  endfacet
  facet normal -0.707108 0 0.707106
    outer loop
      vertex -20.0466 -26.5 91.325
      vertex -18.825 -24.5 92.5466
      vertex -20.0466 -24.5 91.325
    endloop
  endfacet
  facet normal -0.707108 0 0.707106
    outer loop
      vertex -18.825 -24.5 92.5466
      vertex -20.0466 -26.5 91.325
      vertex -18.825 -26.5 92.5466
    endloop
  endfacet
  facet normal -0.75011 0 0.661313
    outer loop
      vertex -21.1891 -26.5 90.0292
      vertex -20.0466 -24.5 91.325
      vertex -21.1891 -24.5 90.0292
    endloop
  endfacet
  facet normal -0.75011 0 0.661313
    outer loop
      vertex -20.0466 -24.5 91.325
      vertex -21.1891 -26.5 90.0292
      vertex -20.0466 -26.5 91.325
    endloop
  endfacet
  facet normal -0.790155 0 0.612907
    outer loop
      vertex -22.248 -26.5 88.6641
      vertex -21.1891 -24.5 90.0292
      vertex -22.248 -24.5 88.6641
    endloop
  endfacet
  facet normal -0.790155 0 0.612907
    outer loop
      vertex -21.1891 -24.5 90.0292
      vertex -22.248 -26.5 88.6641
      vertex -21.1891 -26.5 90.0292
    endloop
  endfacet
  facet normal -0.82708 0 0.562084
    outer loop
      vertex -23.219 -26.5 87.2352
      vertex -22.248 -24.5 88.6641
      vertex -23.219 -24.5 87.2352
    endloop
  endfacet
  facet normal -0.82708 0 0.562084
    outer loop
      vertex -22.248 -24.5 88.6641
      vertex -23.219 -26.5 87.2352
      vertex -22.248 -26.5 88.6641
    endloop
  endfacet
  facet normal -0.860742 0 0.509041
    outer loop
      vertex -24.0984 -26.5 85.7482
      vertex -23.219 -24.5 87.2352
      vertex -24.0984 -24.5 85.7482
    endloop
  endfacet
  facet normal -0.860742 0 0.509041
    outer loop
      vertex -23.219 -24.5 87.2352
      vertex -24.0984 -26.5 85.7482
      vertex -23.219 -26.5 87.2352
    endloop
  endfacet
  facet normal -0.891006 0 0.453991
    outer loop
      vertex -24.8827 -26.5 84.2089
      vertex -24.0984 -24.5 85.7482
      vertex -24.8827 -24.5 84.2089
    endloop
  endfacet
  facet normal -0.891006 0 0.453991
    outer loop
      vertex -24.0984 -24.5 85.7482
      vertex -24.8827 -26.5 84.2089
      vertex -24.0984 -26.5 85.7482
    endloop
  endfacet
  facet normal -0.917754 0 0.397149
    outer loop
      vertex -25.5689 -26.5 82.6234
      vertex -24.8827 -24.5 84.2089
      vertex -25.5689 -24.5 82.6234
    endloop
  endfacet
  facet normal -0.917754 0 0.397149
    outer loop
      vertex -24.8827 -24.5 84.2089
      vertex -25.5689 -26.5 82.6234
      vertex -24.8827 -26.5 84.2089
    endloop
  endfacet
  facet normal -0.940881 0 0.338738
    outer loop
      vertex -26.1541 -26.5 80.998
      vertex -25.5689 -24.5 82.6234
      vertex -26.1541 -24.5 80.998
    endloop
  endfacet
  facet normal -0.940881 0 0.338738
    outer loop
      vertex -25.5689 -24.5 82.6234
      vertex -26.1541 -26.5 80.998
      vertex -25.5689 -26.5 82.6234
    endloop
  endfacet
  facet normal -0.960294 0 0.278991
    outer loop
      vertex -26.636 -26.5 79.339
      vertex -26.1541 -24.5 80.998
      vertex -26.636 -24.5 79.339
    endloop
  endfacet
  facet normal -0.960294 0 0.278991
    outer loop
      vertex -26.1541 -24.5 80.998
      vertex -26.636 -26.5 79.339
      vertex -26.1541 -26.5 80.998
    endloop
  endfacet
  facet normal -0.975917 0 0.218142
    outer loop
      vertex -27.0129 -26.5 77.653
      vertex -26.636 -24.5 79.339
      vertex -27.0129 -24.5 77.653
    endloop
  endfacet
  facet normal -0.975917 0 0.218142
    outer loop
      vertex -26.636 -24.5 79.339
      vertex -27.0129 -26.5 77.653
      vertex -26.636 -26.5 79.339
    endloop
  endfacet
  facet normal -0.987688 0 0.156434
    outer loop
      vertex -27.2832 -26.5 75.9467
      vertex -27.0129 -24.5 77.653
      vertex -27.2832 -24.5 75.9467
    endloop
  endfacet
  facet normal -0.987688 0 0.156434
    outer loop
      vertex -27.0129 -24.5 77.653
      vertex -27.2832 -26.5 75.9467
      vertex -27.0129 -26.5 77.653
    endloop
  endfacet
  facet normal -0.995562 0 0.0941092
    outer loop
      vertex -27.4457 -26.5 74.2267
      vertex -27.2832 -24.5 75.9467
      vertex -27.4457 -24.5 74.2267
    endloop
  endfacet
  facet normal -0.995562 0 0.0941092
    outer loop
      vertex -27.2832 -24.5 75.9467
      vertex -27.4457 -26.5 74.2267
      vertex -27.2832 -26.5 75.9467
    endloop
  endfacet
  facet normal -0.999507 0 0.0314103
    outer loop
      vertex -27.5 -26.5 72.5
      vertex -27.4457 -24.5 74.2267
      vertex -27.5 -24.5 72.5
    endloop
  endfacet
  facet normal -0.999507 0 0.0314103
    outer loop
      vertex -27.4457 -24.5 74.2267
      vertex -27.5 -26.5 72.5
      vertex -27.4457 -26.5 74.2267
    endloop
  endfacet
  facet normal -0.999507 0 -0.0314103
    outer loop
      vertex -27.4457 -26.5 70.7733
      vertex -27.5 -24.5 72.5
      vertex -27.4457 -24.5 70.7733
    endloop
  endfacet
  facet normal -0.999507 -0 -0.0314103
    outer loop
      vertex -27.5 -24.5 72.5
      vertex -27.4457 -26.5 70.7733
      vertex -27.5 -26.5 72.5
    endloop
  endfacet
  facet normal -0.995562 0 -0.0941092
    outer loop
      vertex -27.2832 -26.5 69.0533
      vertex -27.4457 -24.5 70.7733
      vertex -27.2832 -24.5 69.0533
    endloop
  endfacet
  facet normal -0.995562 -0 -0.0941092
    outer loop
      vertex -27.4457 -24.5 70.7733
      vertex -27.2832 -26.5 69.0533
      vertex -27.4457 -26.5 70.7733
    endloop
  endfacet
  facet normal -0.987688 0 -0.156434
    outer loop
      vertex -27.0129 -26.5 67.347
      vertex -27.2832 -24.5 69.0533
      vertex -27.0129 -24.5 67.347
    endloop
  endfacet
  facet normal -0.987688 -0 -0.156434
    outer loop
      vertex -27.2832 -24.5 69.0533
      vertex -27.0129 -26.5 67.347
      vertex -27.2832 -26.5 69.0533
    endloop
  endfacet
  facet normal -0.975917 0 -0.218142
    outer loop
      vertex -26.636 -26.5 65.661
      vertex -27.0129 -24.5 67.347
      vertex -26.636 -24.5 65.661
    endloop
  endfacet
  facet normal -0.975917 -0 -0.218142
    outer loop
      vertex -27.0129 -24.5 67.347
      vertex -26.636 -26.5 65.661
      vertex -27.0129 -26.5 67.347
    endloop
  endfacet
  facet normal -0.960294 0 -0.278991
    outer loop
      vertex -26.1541 -26.5 64.002
      vertex -26.636 -24.5 65.661
      vertex -26.1541 -24.5 64.002
    endloop
  endfacet
  facet normal -0.960294 -0 -0.278991
    outer loop
      vertex -26.636 -24.5 65.661
      vertex -26.1541 -26.5 64.002
      vertex -26.636 -26.5 65.661
    endloop
  endfacet
  facet normal -0.94088 0 -0.338739
    outer loop
      vertex -25.5689 -26.5 62.3766
      vertex -26.1541 -24.5 64.002
      vertex -25.5689 -24.5 62.3766
    endloop
  endfacet
  facet normal -0.94088 -0 -0.338739
    outer loop
      vertex -26.1541 -24.5 64.002
      vertex -25.5689 -26.5 62.3766
      vertex -26.1541 -26.5 64.002
    endloop
  endfacet
  facet normal -0.917755 0 -0.397148
    outer loop
      vertex -24.8827 -26.5 60.7911
      vertex -25.5689 -24.5 62.3766
      vertex -24.8827 -24.5 60.7911
    endloop
  endfacet
  facet normal -0.917755 -0 -0.397148
    outer loop
      vertex -25.5689 -24.5 62.3766
      vertex -24.8827 -26.5 60.7911
      vertex -25.5689 -26.5 62.3766
    endloop
  endfacet
  facet normal -0.891007 0 -0.45399
    outer loop
      vertex -24.0984 -26.5 59.2518
      vertex -24.8827 -24.5 60.7911
      vertex -24.0984 -24.5 59.2518
    endloop
  endfacet
  facet normal -0.891007 -0 -0.45399
    outer loop
      vertex -24.8827 -24.5 60.7911
      vertex -24.0984 -26.5 59.2518
      vertex -24.8827 -26.5 60.7911
    endloop
  endfacet
  facet normal -0.860742 0 -0.509042
    outer loop
      vertex -23.219 -26.5 57.7648
      vertex -24.0984 -24.5 59.2518
      vertex -23.219 -24.5 57.7648
    endloop
  endfacet
  facet normal -0.860742 -0 -0.509042
    outer loop
      vertex -24.0984 -24.5 59.2518
      vertex -23.219 -26.5 57.7648
      vertex -24.0984 -26.5 59.2518
    endloop
  endfacet
  facet normal -0.82708 0 -0.562084
    outer loop
      vertex -22.248 -26.5 56.3359
      vertex -23.219 -24.5 57.7648
      vertex -22.248 -24.5 56.3359
    endloop
  endfacet
  facet normal -0.82708 -0 -0.562084
    outer loop
      vertex -23.219 -24.5 57.7648
      vertex -22.248 -26.5 56.3359
      vertex -23.219 -26.5 57.7648
    endloop
  endfacet
  facet normal -0.790155 0 -0.612907
    outer loop
      vertex -21.1891 -26.5 54.9708
      vertex -22.248 -24.5 56.3359
      vertex -21.1891 -24.5 54.9708
    endloop
  endfacet
  facet normal -0.790155 -0 -0.612907
    outer loop
      vertex -22.248 -24.5 56.3359
      vertex -21.1891 -26.5 54.9708
      vertex -22.248 -26.5 56.3359
    endloop
  endfacet
  facet normal -0.750111 0 -0.661312
    outer loop
      vertex -20.0466 -26.5 53.675
      vertex -21.1891 -24.5 54.9708
      vertex -20.0466 -24.5 53.675
    endloop
  endfacet
  facet normal -0.750111 -0 -0.661312
    outer loop
      vertex -21.1891 -24.5 54.9708
      vertex -20.0466 -26.5 53.675
      vertex -21.1891 -26.5 54.9708
    endloop
  endfacet
  facet normal -0.707107 0 -0.707107
    outer loop
      vertex -18.825 -26.5 52.4534
      vertex -20.0466 -24.5 53.675
      vertex -18.825 -24.5 52.4534
    endloop
  endfacet
  facet normal -0.707107 -0 -0.707107
    outer loop
      vertex -20.0466 -24.5 53.675
      vertex -18.825 -26.5 52.4534
      vertex -20.0466 -26.5 53.675
    endloop
  endfacet
  facet normal -0.661311 0 -0.750111
    outer loop
      vertex -18.825 -26.5 52.4534
      vertex -17.5292 -24.5 51.3109
      vertex -17.5292 -26.5 51.3109
    endloop
  endfacet
  facet normal -0.661311 0 -0.750111
    outer loop
      vertex -17.5292 -24.5 51.3109
      vertex -18.825 -26.5 52.4534
      vertex -18.825 -24.5 52.4534
    endloop
  endfacet
  facet normal -0.612907 0 -0.790155
    outer loop
      vertex -17.5292 -26.5 51.3109
      vertex -16.1641 -24.5 50.252
      vertex -16.1641 -26.5 50.252
    endloop
  endfacet
  facet normal -0.612907 0 -0.790155
    outer loop
      vertex -16.1641 -24.5 50.252
      vertex -17.5292 -26.5 51.3109
      vertex -17.5292 -24.5 51.3109
    endloop
  endfacet
  facet normal -0.562083 0 -0.827081
    outer loop
      vertex -16.1641 -26.5 50.252
      vertex -14.7352 -24.5 49.281
      vertex -14.7352 -26.5 49.281
    endloop
  endfacet
  facet normal -0.562083 0 -0.827081
    outer loop
      vertex -14.7352 -24.5 49.281
      vertex -16.1641 -26.5 50.252
      vertex -16.1641 -24.5 50.252
    endloop
  endfacet
  facet normal -0.509042 0 -0.860742
    outer loop
      vertex -14.7352 -26.5 49.281
      vertex -13.2482 -24.5 48.4016
      vertex -13.2482 -26.5 48.4016
    endloop
  endfacet
  facet normal -0.509042 0 -0.860742
    outer loop
      vertex -13.2482 -24.5 48.4016
      vertex -14.7352 -26.5 49.281
      vertex -14.7352 -24.5 49.281
    endloop
  endfacet
  facet normal -0.45399 0 -0.891007
    outer loop
      vertex -13.2482 -26.5 48.4016
      vertex -11.7089 -24.5 47.6173
      vertex -11.7089 -26.5 47.6173
    endloop
  endfacet
  facet normal -0.45399 0 -0.891007
    outer loop
      vertex -11.7089 -24.5 47.6173
      vertex -13.2482 -26.5 48.4016
      vertex -13.2482 -24.5 48.4016
    endloop
  endfacet
  facet normal -0.397147 0 -0.917755
    outer loop
      vertex -11.7089 -26.5 47.6173
      vertex -10.1234 -24.5 46.9311
      vertex -10.1234 -26.5 46.9311
    endloop
  endfacet
  facet normal -0.397147 0 -0.917755
    outer loop
      vertex -10.1234 -24.5 46.9311
      vertex -11.7089 -26.5 47.6173
      vertex -11.7089 -24.5 47.6173
    endloop
  endfacet
  facet normal -0.338738 0 -0.940881
    outer loop
      vertex -10.1234 -26.5 46.9311
      vertex -8.49797 -24.5 46.3459
      vertex -8.49797 -26.5 46.3459
    endloop
  endfacet
  facet normal -0.338738 0 -0.940881
    outer loop
      vertex -8.49797 -24.5 46.3459
      vertex -10.1234 -26.5 46.9311
      vertex -10.1234 -24.5 46.9311
    endloop
  endfacet
  facet normal -0.278991 0 -0.960294
    outer loop
      vertex -8.49797 -26.5 46.3459
      vertex -6.83897 -24.5 45.864
      vertex -6.83897 -26.5 45.864
    endloop
  endfacet
  facet normal -0.278991 0 -0.960294
    outer loop
      vertex -6.83897 -24.5 45.864
      vertex -8.49797 -26.5 46.3459
      vertex -8.49797 -24.5 46.3459
    endloop
  endfacet
  facet normal -0.218143 0 -0.975917
    outer loop
      vertex -6.83897 -26.5 45.864
      vertex -5.15299 -24.5 45.4871
      vertex -5.15299 -26.5 45.4871
    endloop
  endfacet
  facet normal -0.218143 0 -0.975917
    outer loop
      vertex -5.15299 -24.5 45.4871
      vertex -6.83897 -26.5 45.864
      vertex -6.83897 -24.5 45.864
    endloop
  endfacet
  facet normal -0.156435 0 -0.987688
    outer loop
      vertex -5.15299 -26.5 45.4871
      vertex -3.44666 -24.5 45.2168
      vertex -3.44666 -26.5 45.2168
    endloop
  endfacet
  facet normal -0.156435 0 -0.987688
    outer loop
      vertex -3.44666 -24.5 45.2168
      vertex -5.15299 -26.5 45.4871
      vertex -5.15299 -24.5 45.4871
    endloop
  endfacet
  facet normal -0.0941093 0 -0.995562
    outer loop
      vertex -3.44666 -26.5 45.2168
      vertex -1.72674 -24.5 45.0543
      vertex -1.72674 -26.5 45.0543
    endloop
  endfacet
  facet normal -0.0941093 0 -0.995562
    outer loop
      vertex -1.72674 -24.5 45.0543
      vertex -3.44666 -26.5 45.2168
      vertex -3.44666 -24.5 45.2168
    endloop
  endfacet
  facet normal -0.0314102 0 -0.999507
    outer loop
      vertex -1.72674 -26.5 45.0543
      vertex -5.05167e-15 -24.5 45
      vertex -5.05167e-15 -26.5 45
    endloop
  endfacet
  facet normal -0.0314102 0 -0.999507
    outer loop
      vertex -5.05167e-15 -24.5 45
      vertex -1.72674 -26.5 45.0543
      vertex -1.72674 -24.5 45.0543
    endloop
  endfacet
  facet normal 0.0314102 0 -0.999507
    outer loop
      vertex -5.05167e-15 -26.5 45
      vertex 1.72674 -24.5 45.0543
      vertex 1.72674 -26.5 45.0543
    endloop
  endfacet
  facet normal 0.0314102 0 -0.999507
    outer loop
      vertex 1.72674 -24.5 45.0543
      vertex -5.05167e-15 -26.5 45
      vertex -5.05167e-15 -24.5 45
    endloop
  endfacet
  facet normal 0.0941093 0 -0.995562
    outer loop
      vertex 1.72674 -26.5 45.0543
      vertex 3.44666 -24.5 45.2168
      vertex 3.44666 -26.5 45.2168
    endloop
  endfacet
  facet normal 0.0941093 0 -0.995562
    outer loop
      vertex 3.44666 -24.5 45.2168
      vertex 1.72674 -26.5 45.0543
      vertex 1.72674 -24.5 45.0543
    endloop
  endfacet
  facet normal 0.156435 0 -0.987688
    outer loop
      vertex 3.44666 -26.5 45.2168
      vertex 5.15299 -24.5 45.4871
      vertex 5.15299 -26.5 45.4871
    endloop
  endfacet
  facet normal 0.156435 0 -0.987688
    outer loop
      vertex 5.15299 -24.5 45.4871
      vertex 3.44666 -26.5 45.2168
      vertex 3.44666 -24.5 45.2168
    endloop
  endfacet
  facet normal 0.218143 0 -0.975917
    outer loop
      vertex 5.15299 -26.5 45.4871
      vertex 6.83897 -24.5 45.864
      vertex 6.83897 -26.5 45.864
    endloop
  endfacet
  facet normal 0.218143 0 -0.975917
    outer loop
      vertex 6.83897 -24.5 45.864
      vertex 5.15299 -26.5 45.4871
      vertex 5.15299 -24.5 45.4871
    endloop
  endfacet
  facet normal 0.278991 0 -0.960294
    outer loop
      vertex 6.83897 -26.5 45.864
      vertex 8.49797 -24.5 46.3459
      vertex 8.49797 -26.5 46.3459
    endloop
  endfacet
  facet normal 0.278991 0 -0.960294
    outer loop
      vertex 8.49797 -24.5 46.3459
      vertex 6.83897 -26.5 45.864
      vertex 6.83897 -24.5 45.864
    endloop
  endfacet
  facet normal 0.338738 0 -0.940881
    outer loop
      vertex 8.49797 -26.5 46.3459
      vertex 10.1234 -24.5 46.9311
      vertex 10.1234 -26.5 46.9311
    endloop
  endfacet
  facet normal 0.338738 0 -0.940881
    outer loop
      vertex 10.1234 -24.5 46.9311
      vertex 8.49797 -26.5 46.3459
      vertex 8.49797 -24.5 46.3459
    endloop
  endfacet
  facet normal 0.397147 0 -0.917755
    outer loop
      vertex 10.1234 -26.5 46.9311
      vertex 11.7089 -24.5 47.6173
      vertex 11.7089 -26.5 47.6173
    endloop
  endfacet
  facet normal 0.397147 0 -0.917755
    outer loop
      vertex 11.7089 -24.5 47.6173
      vertex 10.1234 -26.5 46.9311
      vertex 10.1234 -24.5 46.9311
    endloop
  endfacet
  facet normal 0.45399 0 -0.891007
    outer loop
      vertex 11.7089 -26.5 47.6173
      vertex 13.2482 -24.5 48.4016
      vertex 13.2482 -26.5 48.4016
    endloop
  endfacet
  facet normal 0.45399 0 -0.891007
    outer loop
      vertex 13.2482 -24.5 48.4016
      vertex 11.7089 -26.5 47.6173
      vertex 11.7089 -24.5 47.6173
    endloop
  endfacet
  facet normal 0.509042 0 -0.860742
    outer loop
      vertex 13.2482 -26.5 48.4016
      vertex 14.7352 -24.5 49.281
      vertex 14.7352 -26.5 49.281
    endloop
  endfacet
  facet normal 0.509042 0 -0.860742
    outer loop
      vertex 14.7352 -24.5 49.281
      vertex 13.2482 -26.5 48.4016
      vertex 13.2482 -24.5 48.4016
    endloop
  endfacet
  facet normal 0.562083 0 -0.827081
    outer loop
      vertex 14.7352 -26.5 49.281
      vertex 16.1641 -24.5 50.252
      vertex 16.1641 -26.5 50.252
    endloop
  endfacet
  facet normal 0.562083 0 -0.827081
    outer loop
      vertex 16.1641 -24.5 50.252
      vertex 14.7352 -26.5 49.281
      vertex 14.7352 -24.5 49.281
    endloop
  endfacet
  facet normal 0.612907 0 -0.790155
    outer loop
      vertex 16.1641 -26.5 50.252
      vertex 17.5292 -24.5 51.3109
      vertex 17.5292 -26.5 51.3109
    endloop
  endfacet
  facet normal 0.612907 0 -0.790155
    outer loop
      vertex 17.5292 -24.5 51.3109
      vertex 16.1641 -26.5 50.252
      vertex 16.1641 -24.5 50.252
    endloop
  endfacet
  facet normal 0.661311 0 -0.750111
    outer loop
      vertex 17.5292 -26.5 51.3109
      vertex 18.825 -24.5 52.4534
      vertex 18.825 -26.5 52.4534
    endloop
  endfacet
  facet normal 0.661311 0 -0.750111
    outer loop
      vertex 18.825 -24.5 52.4534
      vertex 17.5292 -26.5 51.3109
      vertex 17.5292 -24.5 51.3109
    endloop
  endfacet
  facet normal 0.707107 0 -0.707107
    outer loop
      vertex 20.0466 -26.5 53.675
      vertex 18.825 -24.5 52.4534
      vertex 20.0466 -24.5 53.675
    endloop
  endfacet
  facet normal 0.707107 0 -0.707107
    outer loop
      vertex 18.825 -24.5 52.4534
      vertex 20.0466 -26.5 53.675
      vertex 18.825 -26.5 52.4534
    endloop
  endfacet
  facet normal 0.750111 0 -0.661312
    outer loop
      vertex 21.1891 -26.5 54.9708
      vertex 20.0466 -24.5 53.675
      vertex 21.1891 -24.5 54.9708
    endloop
  endfacet
  facet normal 0.750111 0 -0.661312
    outer loop
      vertex 20.0466 -24.5 53.675
      vertex 21.1891 -26.5 54.9708
      vertex 20.0466 -26.5 53.675
    endloop
  endfacet
  facet normal 0.790155 0 -0.612907
    outer loop
      vertex 22.248 -26.5 56.3359
      vertex 21.1891 -24.5 54.9708
      vertex 22.248 -24.5 56.3359
    endloop
  endfacet
  facet normal 0.790155 0 -0.612907
    outer loop
      vertex 21.1891 -24.5 54.9708
      vertex 22.248 -26.5 56.3359
      vertex 21.1891 -26.5 54.9708
    endloop
  endfacet
  facet normal 0.82708 0 -0.562084
    outer loop
      vertex 23.219 -26.5 57.7648
      vertex 22.248 -24.5 56.3359
      vertex 23.219 -24.5 57.7648
    endloop
  endfacet
  facet normal 0.82708 0 -0.562084
    outer loop
      vertex 22.248 -24.5 56.3359
      vertex 23.219 -26.5 57.7648
      vertex 22.248 -26.5 56.3359
    endloop
  endfacet
  facet normal 0.860742 0 -0.509042
    outer loop
      vertex 24.0984 -26.5 59.2518
      vertex 23.219 -24.5 57.7648
      vertex 24.0984 -24.5 59.2518
    endloop
  endfacet
  facet normal 0.860742 0 -0.509042
    outer loop
      vertex 23.219 -24.5 57.7648
      vertex 24.0984 -26.5 59.2518
      vertex 23.219 -26.5 57.7648
    endloop
  endfacet
  facet normal 0.891007 0 -0.45399
    outer loop
      vertex 24.8827 -26.5 60.7911
      vertex 24.0984 -24.5 59.2518
      vertex 24.8827 -24.5 60.7911
    endloop
  endfacet
  facet normal 0.891007 0 -0.45399
    outer loop
      vertex 24.0984 -24.5 59.2518
      vertex 24.8827 -26.5 60.7911
      vertex 24.0984 -26.5 59.2518
    endloop
  endfacet
  facet normal 0.917755 0 -0.397148
    outer loop
      vertex 25.5689 -26.5 62.3766
      vertex 24.8827 -24.5 60.7911
      vertex 25.5689 -24.5 62.3766
    endloop
  endfacet
  facet normal 0.917755 0 -0.397148
    outer loop
      vertex 24.8827 -24.5 60.7911
      vertex 25.5689 -26.5 62.3766
      vertex 24.8827 -26.5 60.7911
    endloop
  endfacet
  facet normal 0.94088 0 -0.338739
    outer loop
      vertex 26.1541 -26.5 64.002
      vertex 25.5689 -24.5 62.3766
      vertex 26.1541 -24.5 64.002
    endloop
  endfacet
  facet normal 0.94088 0 -0.338739
    outer loop
      vertex 25.5689 -24.5 62.3766
      vertex 26.1541 -26.5 64.002
      vertex 25.5689 -26.5 62.3766
    endloop
  endfacet
  facet normal 0.960294 0 -0.278991
    outer loop
      vertex 26.636 -26.5 65.661
      vertex 26.1541 -24.5 64.002
      vertex 26.636 -24.5 65.661
    endloop
  endfacet
  facet normal 0.960294 0 -0.278991
    outer loop
      vertex 26.1541 -24.5 64.002
      vertex 26.636 -26.5 65.661
      vertex 26.1541 -26.5 64.002
    endloop
  endfacet
  facet normal 0.975917 0 -0.218142
    outer loop
      vertex 27.0129 -26.5 67.347
      vertex 26.636 -24.5 65.661
      vertex 27.0129 -24.5 67.347
    endloop
  endfacet
  facet normal 0.975917 0 -0.218142
    outer loop
      vertex 26.636 -24.5 65.661
      vertex 27.0129 -26.5 67.347
      vertex 26.636 -26.5 65.661
    endloop
  endfacet
  facet normal 0.987688 0 -0.156434
    outer loop
      vertex 27.2832 -26.5 69.0533
      vertex 27.0129 -24.5 67.347
      vertex 27.2832 -24.5 69.0533
    endloop
  endfacet
  facet normal 0.987688 0 -0.156434
    outer loop
      vertex 27.0129 -24.5 67.347
      vertex 27.2832 -26.5 69.0533
      vertex 27.0129 -26.5 67.347
    endloop
  endfacet
  facet normal 0.995562 0 -0.0941092
    outer loop
      vertex 27.4457 -26.5 70.7733
      vertex 27.2832 -24.5 69.0533
      vertex 27.4457 -24.5 70.7733
    endloop
  endfacet
  facet normal 0.995562 0 -0.0941092
    outer loop
      vertex 27.2832 -24.5 69.0533
      vertex 27.4457 -26.5 70.7733
      vertex 27.2832 -26.5 69.0533
    endloop
  endfacet
  facet normal 0.999507 0 -0.0314103
    outer loop
      vertex 27.5 -26.5 72.5
      vertex 27.4457 -24.5 70.7733
      vertex 27.5 -24.5 72.5
    endloop
  endfacet
  facet normal 0.999507 0 -0.0314103
    outer loop
      vertex 27.4457 -24.5 70.7733
      vertex 27.5 -26.5 72.5
      vertex 27.4457 -26.5 70.7733
    endloop
  endfacet
  facet normal 0 1 0
    outer loop
      vertex 1.72674 -24.5 99.9457
      vertex -1.72674 -24.5 99.9457
      vertex 1.68389e-15 -24.5 100
    endloop
  endfacet
  facet normal 0 1 0
    outer loop
      vertex 3.44666 -24.5 99.7832
      vertex -1.72674 -24.5 99.9457
      vertex 1.72674 -24.5 99.9457
    endloop
  endfacet
  facet normal 0 1 0
    outer loop
      vertex 3.44666 -24.5 99.7832
      vertex -3.44666 -24.5 99.7832
      vertex -1.72674 -24.5 99.9457
    endloop
  endfacet
  facet normal 0 1 0
    outer loop
      vertex 5.15299 -24.5 99.5129
      vertex -3.44666 -24.5 99.7832
      vertex 3.44666 -24.5 99.7832
    endloop
  endfacet
  facet normal 0 1 0
    outer loop
      vertex 5.15299 -24.5 99.5129
      vertex -5.15299 -24.5 99.5129
      vertex -3.44666 -24.5 99.7832
    endloop
  endfacet
  facet normal 0 1 0
    outer loop
      vertex 6.83897 -24.5 99.136
      vertex -5.15299 -24.5 99.5129
      vertex 5.15299 -24.5 99.5129
    endloop
  endfacet
  facet normal 0 1 0
    outer loop
      vertex 6.83897 -24.5 99.136
      vertex -6.83897 -24.5 99.136
      vertex -5.15299 -24.5 99.5129
    endloop
  endfacet
  facet normal 0 1 0
    outer loop
      vertex 8.49797 -24.5 98.6541
      vertex -6.83897 -24.5 99.136
      vertex 6.83897 -24.5 99.136
    endloop
  endfacet
  facet normal 0 1 0
    outer loop
      vertex 8.49797 -24.5 98.6541
      vertex -8.49797 -24.5 98.6541
      vertex -6.83897 -24.5 99.136
    endloop
  endfacet
  facet normal 0 1 0
    outer loop
      vertex 10.1234 -24.5 98.0689
      vertex -8.49797 -24.5 98.6541
      vertex 8.49797 -24.5 98.6541
    endloop
  endfacet
  facet normal 0 1 0
    outer loop
      vertex 10.1234 -24.5 98.0689
      vertex -10.1234 -24.5 98.0689
      vertex -8.49797 -24.5 98.6541
    endloop
  endfacet
  facet normal 0 1 0
    outer loop
      vertex 11.7089 -24.5 97.3827
      vertex -10.1234 -24.5 98.0689
      vertex 10.1234 -24.5 98.0689
    endloop
  endfacet
  facet normal 0 1 0
    outer loop
      vertex 11.7089 -24.5 97.3827
      vertex -11.7089 -24.5 97.3827
      vertex -10.1234 -24.5 98.0689
    endloop
  endfacet
  facet normal 0 1 0
    outer loop
      vertex 13.2482 -24.5 96.5984
      vertex -11.7089 -24.5 97.3827
      vertex 11.7089 -24.5 97.3827
    endloop
  endfacet
  facet normal 0 1 0
    outer loop
      vertex 13.2482 -24.5 96.5984
      vertex -13.2482 -24.5 96.5984
      vertex -11.7089 -24.5 97.3827
    endloop
  endfacet
  facet normal 0 1 0
    outer loop
      vertex 14.7352 -24.5 95.719
      vertex -13.2482 -24.5 96.5984
      vertex 13.2482 -24.5 96.5984
    endloop
  endfacet
  facet normal 0 1 0
    outer loop
      vertex 14.7352 -24.5 95.719
      vertex -14.7352 -24.5 95.719
      vertex -13.2482 -24.5 96.5984
    endloop
  endfacet
  facet normal 0 1 0
    outer loop
      vertex 16.1641 -24.5 94.748
      vertex -14.7352 -24.5 95.719
      vertex 14.7352 -24.5 95.719
    endloop
  endfacet
  facet normal 0 1 0
    outer loop
      vertex 16.1641 -24.5 94.748
      vertex -16.1641 -24.5 94.748
      vertex -14.7352 -24.5 95.719
    endloop
  endfacet
  facet normal 0 1 0
    outer loop
      vertex 17.5292 -24.5 93.6891
      vertex -16.1641 -24.5 94.748
      vertex 16.1641 -24.5 94.748
    endloop
  endfacet
  facet normal 0 1 0
    outer loop
      vertex 17.5292 -24.5 93.6891
      vertex -17.5292 -24.5 93.6891
      vertex -16.1641 -24.5 94.748
    endloop
  endfacet
  facet normal 0 1 0
    outer loop
      vertex 18.825 -24.5 92.5466
      vertex -17.5292 -24.5 93.6891
      vertex 17.5292 -24.5 93.6891
    endloop
  endfacet
  facet normal 0 1 0
    outer loop
      vertex 18.825 -24.5 92.5466
      vertex -18.825 -24.5 92.5466
      vertex -17.5292 -24.5 93.6891
    endloop
  endfacet
  facet normal 0 1 0
    outer loop
      vertex 20.0466 -24.5 91.325
      vertex -18.825 -24.5 92.5466
      vertex 18.825 -24.5 92.5466
    endloop
  endfacet
  facet normal 0 1 0
    outer loop
      vertex 20.0466 -24.5 91.325
      vertex -20.0466 -24.5 91.325
      vertex -18.825 -24.5 92.5466
    endloop
  endfacet
  facet normal 0 1 0
    outer loop
      vertex 21.1891 -24.5 90.0292
      vertex -20.0466 -24.5 91.325
      vertex 20.0466 -24.5 91.325
    endloop
  endfacet
  facet normal 0 1 0
    outer loop
      vertex 21.1891 -24.5 90.0292
      vertex -21.1891 -24.5 90.0292
      vertex -20.0466 -24.5 91.325
    endloop
  endfacet
  facet normal 0 1 0
    outer loop
      vertex 22.248 -24.5 88.6641
      vertex -21.1891 -24.5 90.0292
      vertex 21.1891 -24.5 90.0292
    endloop
  endfacet
  facet normal 0 1 0
    outer loop
      vertex 22.248 -24.5 88.6641
      vertex -22.248 -24.5 88.6641
      vertex -21.1891 -24.5 90.0292
    endloop
  endfacet
  facet normal 0 1 0
    outer loop
      vertex 23.219 -24.5 87.2352
      vertex -22.248 -24.5 88.6641
      vertex 22.248 -24.5 88.6641
    endloop
  endfacet
  facet normal 0 1 0
    outer loop
      vertex 23.219 -24.5 87.2352
      vertex -23.219 -24.5 87.2352
      vertex -22.248 -24.5 88.6641
    endloop
  endfacet
  facet normal 0 1 0
    outer loop
      vertex 24.0984 -24.5 85.7482
      vertex -23.219 -24.5 87.2352
      vertex 23.219 -24.5 87.2352
    endloop
  endfacet
  facet normal 0 1 0
    outer loop
      vertex 24.0984 -24.5 85.7482
      vertex -24.0984 -24.5 85.7482
      vertex -23.219 -24.5 87.2352
    endloop
  endfacet
  facet normal 0 1 0
    outer loop
      vertex 24.8827 -24.5 84.2089
      vertex -24.0984 -24.5 85.7482
      vertex 24.0984 -24.5 85.7482
    endloop
  endfacet
  facet normal 0 1 0
    outer loop
      vertex 24.8827 -24.5 84.2089
      vertex -24.8827 -24.5 84.2089
      vertex -24.0984 -24.5 85.7482
    endloop
  endfacet
  facet normal 0 1 0
    outer loop
      vertex 25.5689 -24.5 82.6234
      vertex -24.8827 -24.5 84.2089
      vertex 24.8827 -24.5 84.2089
    endloop
  endfacet
  facet normal 0 1 0
    outer loop
      vertex 25.5689 -24.5 82.6234
      vertex -25.5689 -24.5 82.6234
      vertex -24.8827 -24.5 84.2089
    endloop
  endfacet
  facet normal 0 1 0
    outer loop
      vertex 26.1541 -24.5 80.998
      vertex -25.5689 -24.5 82.6234
      vertex 25.5689 -24.5 82.6234
    endloop
  endfacet
  facet normal 0 1 0
    outer loop
      vertex 26.1541 -24.5 80.998
      vertex -26.1541 -24.5 80.998
      vertex -25.5689 -24.5 82.6234
    endloop
  endfacet
  facet normal 0 1 0
    outer loop
      vertex 26.636 -24.5 79.339
      vertex -26.1541 -24.5 80.998
      vertex 26.1541 -24.5 80.998
    endloop
  endfacet
  facet normal 0 1 0
    outer loop
      vertex 26.636 -24.5 79.339
      vertex -26.636 -24.5 79.339
      vertex -26.1541 -24.5 80.998
    endloop
  endfacet
  facet normal 0 1 0
    outer loop
      vertex 27.0129 -24.5 77.653
      vertex -26.636 -24.5 79.339
      vertex 26.636 -24.5 79.339
    endloop
  endfacet
  facet normal 0 1 0
    outer loop
      vertex 27.0129 -24.5 77.653
      vertex -27.0129 -24.5 77.653
      vertex -26.636 -24.5 79.339
    endloop
  endfacet
  facet normal 0 1 0
    outer loop
      vertex 27.2832 -24.5 75.9467
      vertex -27.0129 -24.5 77.653
      vertex 27.0129 -24.5 77.653
    endloop
  endfacet
  facet normal 0 1 0
    outer loop
      vertex 27.2832 -24.5 75.9467
      vertex -27.2832 -24.5 75.9467
      vertex -27.0129 -24.5 77.653
    endloop
  endfacet
  facet normal 0 1 0
    outer loop
      vertex 27.4457 -24.5 74.2267
      vertex -27.2832 -24.5 75.9467
      vertex 27.2832 -24.5 75.9467
    endloop
  endfacet
  facet normal 0 1 0
    outer loop
      vertex 27.4457 -24.5 74.2267
      vertex -27.4457 -24.5 74.2267
      vertex -27.2832 -24.5 75.9467
    endloop
  endfacet
  facet normal 0 1 0
    outer loop
      vertex 27.5 -24.5 72.5
      vertex -27.4457 -24.5 74.2267
      vertex 27.4457 -24.5 74.2267
    endloop
  endfacet
  facet normal 0 1 0
    outer loop
      vertex 27.5 -24.5 72.5
      vertex -27.5 -24.5 72.5
      vertex -27.4457 -24.5 74.2267
    endloop
  endfacet
  facet normal 0 1 -0
    outer loop
      vertex 27.4457 -24.5 70.7733
      vertex -27.5 -24.5 72.5
      vertex 27.5 -24.5 72.5
    endloop
  endfacet
  facet normal 0 1 0
    outer loop
      vertex 27.4457 -24.5 70.7733
      vertex -27.4457 -24.5 70.7733
      vertex -27.5 -24.5 72.5
    endloop
  endfacet
  facet normal 0 1 -0
    outer loop
      vertex 27.2832 -24.5 69.0533
      vertex -27.4457 -24.5 70.7733
      vertex 27.4457 -24.5 70.7733
    endloop
  endfacet
  facet normal 0 1 0
    outer loop
      vertex 27.2832 -24.5 69.0533
      vertex -27.2832 -24.5 69.0533
      vertex -27.4457 -24.5 70.7733
    endloop
  endfacet
  facet normal 0 1 -0
    outer loop
      vertex 27.0129 -24.5 67.347
      vertex -27.2832 -24.5 69.0533
      vertex 27.2832 -24.5 69.0533
    endloop
  endfacet
  facet normal 0 1 0
    outer loop
      vertex 27.0129 -24.5 67.347
      vertex -27.0129 -24.5 67.347
      vertex -27.2832 -24.5 69.0533
    endloop
  endfacet
  facet normal 0 1 -0
    outer loop
      vertex 26.636 -24.5 65.661
      vertex -27.0129 -24.5 67.347
      vertex 27.0129 -24.5 67.347
    endloop
  endfacet
  facet normal 0 1 0
    outer loop
      vertex 26.636 -24.5 65.661
      vertex -26.636 -24.5 65.661
      vertex -27.0129 -24.5 67.347
    endloop
  endfacet
  facet normal 0 1 -0
    outer loop
      vertex 26.1541 -24.5 64.002
      vertex -26.636 -24.5 65.661
      vertex 26.636 -24.5 65.661
    endloop
  endfacet
  facet normal 0 1 0
    outer loop
      vertex 26.1541 -24.5 64.002
      vertex -26.1541 -24.5 64.002
      vertex -26.636 -24.5 65.661
    endloop
  endfacet
  facet normal 0 1 -0
    outer loop
      vertex 25.5689 -24.5 62.3766
      vertex -26.1541 -24.5 64.002
      vertex 26.1541 -24.5 64.002
    endloop
  endfacet
  facet normal 0 1 0
    outer loop
      vertex 25.5689 -24.5 62.3766
      vertex -25.5689 -24.5 62.3766
      vertex -26.1541 -24.5 64.002
    endloop
  endfacet
  facet normal 0 1 -0
    outer loop
      vertex 24.8827 -24.5 60.7911
      vertex -25.5689 -24.5 62.3766
      vertex 25.5689 -24.5 62.3766
    endloop
  endfacet
  facet normal 0 1 0
    outer loop
      vertex 24.8827 -24.5 60.7911
      vertex -24.8827 -24.5 60.7911
      vertex -25.5689 -24.5 62.3766
    endloop
  endfacet
  facet normal 0 1 -0
    outer loop
      vertex 24.0984 -24.5 59.2518
      vertex -24.8827 -24.5 60.7911
      vertex 24.8827 -24.5 60.7911
    endloop
  endfacet
  facet normal 0 1 0
    outer loop
      vertex 24.0984 -24.5 59.2518
      vertex -24.0984 -24.5 59.2518
      vertex -24.8827 -24.5 60.7911
    endloop
  endfacet
  facet normal 0 1 -0
    outer loop
      vertex 23.219 -24.5 57.7648
      vertex -24.0984 -24.5 59.2518
      vertex 24.0984 -24.5 59.2518
    endloop
  endfacet
  facet normal 0 1 0
    outer loop
      vertex 23.219 -24.5 57.7648
      vertex -23.219 -24.5 57.7648
      vertex -24.0984 -24.5 59.2518
    endloop
  endfacet
  facet normal 0 1 -0
    outer loop
      vertex 22.248 -24.5 56.3359
      vertex -23.219 -24.5 57.7648
      vertex 23.219 -24.5 57.7648
    endloop
  endfacet
  facet normal 0 1 0
    outer loop
      vertex 22.248 -24.5 56.3359
      vertex -22.248 -24.5 56.3359
      vertex -23.219 -24.5 57.7648
    endloop
  endfacet
  facet normal 0 1 -0
    outer loop
      vertex 21.1891 -24.5 54.9708
      vertex -22.248 -24.5 56.3359
      vertex 22.248 -24.5 56.3359
    endloop
  endfacet
  facet normal 0 1 0
    outer loop
      vertex 21.1891 -24.5 54.9708
      vertex -21.1891 -24.5 54.9708
      vertex -22.248 -24.5 56.3359
    endloop
  endfacet
  facet normal 0 1 -0
    outer loop
      vertex 20.0466 -24.5 53.675
      vertex -21.1891 -24.5 54.9708
      vertex 21.1891 -24.5 54.9708
    endloop
  endfacet
  facet normal 0 1 0
    outer loop
      vertex 20.0466 -24.5 53.675
      vertex -20.0466 -24.5 53.675
      vertex -21.1891 -24.5 54.9708
    endloop
  endfacet
  facet normal 0 1 -0
    outer loop
      vertex 18.825 -24.5 52.4534
      vertex -20.0466 -24.5 53.675
      vertex 20.0466 -24.5 53.675
    endloop
  endfacet
  facet normal 0 1 0
    outer loop
      vertex 18.825 -24.5 52.4534
      vertex -18.825 -24.5 52.4534
      vertex -20.0466 -24.5 53.675
    endloop
  endfacet
  facet normal 0 1 -0
    outer loop
      vertex 17.5292 -24.5 51.3109
      vertex -18.825 -24.5 52.4534
      vertex 18.825 -24.5 52.4534
    endloop
  endfacet
  facet normal 0 1 0
    outer loop
      vertex 17.5292 -24.5 51.3109
      vertex -17.5292 -24.5 51.3109
      vertex -18.825 -24.5 52.4534
    endloop
  endfacet
  facet normal 0 1 -0
    outer loop
      vertex 16.1641 -24.5 50.252
      vertex -17.5292 -24.5 51.3109
      vertex 17.5292 -24.5 51.3109
    endloop
  endfacet
  facet normal 0 1 0
    outer loop
      vertex 16.1641 -24.5 50.252
      vertex -16.1641 -24.5 50.252
      vertex -17.5292 -24.5 51.3109
    endloop
  endfacet
  facet normal 0 1 -0
    outer loop
      vertex 14.7352 -24.5 49.281
      vertex -16.1641 -24.5 50.252
      vertex 16.1641 -24.5 50.252
    endloop
  endfacet
  facet normal 0 1 0
    outer loop
      vertex 14.7352 -24.5 49.281
      vertex -14.7352 -24.5 49.281
      vertex -16.1641 -24.5 50.252
    endloop
  endfacet
  facet normal 0 1 -0
    outer loop
      vertex 13.2482 -24.5 48.4016
      vertex -14.7352 -24.5 49.281
      vertex 14.7352 -24.5 49.281
    endloop
  endfacet
  facet normal 0 1 0
    outer loop
      vertex 13.2482 -24.5 48.4016
      vertex -13.2482 -24.5 48.4016
      vertex -14.7352 -24.5 49.281
    endloop
  endfacet
  facet normal 0 1 -0
    outer loop
      vertex 11.7089 -24.5 47.6173
      vertex -13.2482 -24.5 48.4016
      vertex 13.2482 -24.5 48.4016
    endloop
  endfacet
  facet normal 0 1 0
    outer loop
      vertex 11.7089 -24.5 47.6173
      vertex -11.7089 -24.5 47.6173
      vertex -13.2482 -24.5 48.4016
    endloop
  endfacet
  facet normal 0 1 -0
    outer loop
      vertex 10.1234 -24.5 46.9311
      vertex -11.7089 -24.5 47.6173
      vertex 11.7089 -24.5 47.6173
    endloop
  endfacet
  facet normal 0 1 0
    outer loop
      vertex 10.1234 -24.5 46.9311
      vertex -10.1234 -24.5 46.9311
      vertex -11.7089 -24.5 47.6173
    endloop
  endfacet
  facet normal 0 1 -0
    outer loop
      vertex 8.49797 -24.5 46.3459
      vertex -10.1234 -24.5 46.9311
      vertex 10.1234 -24.5 46.9311
    endloop
  endfacet
  facet normal 0 1 0
    outer loop
      vertex 8.49797 -24.5 46.3459
      vertex -8.49797 -24.5 46.3459
      vertex -10.1234 -24.5 46.9311
    endloop
  endfacet
  facet normal 0 1 -0
    outer loop
      vertex 6.83897 -24.5 45.864
      vertex -8.49797 -24.5 46.3459
      vertex 8.49797 -24.5 46.3459
    endloop
  endfacet
  facet normal 0 1 0
    outer loop
      vertex 6.83897 -24.5 45.864
      vertex -6.83897 -24.5 45.864
      vertex -8.49797 -24.5 46.3459
    endloop
  endfacet
  facet normal 0 1 -0
    outer loop
      vertex 5.15299 -24.5 45.4871
      vertex -6.83897 -24.5 45.864
      vertex 6.83897 -24.5 45.864
    endloop
  endfacet
  facet normal 0 1 0
    outer loop
      vertex 5.15299 -24.5 45.4871
      vertex -5.15299 -24.5 45.4871
      vertex -6.83897 -24.5 45.864
    endloop
  endfacet
  facet normal 0 1 -0
    outer loop
      vertex 3.44666 -24.5 45.2168
      vertex -5.15299 -24.5 45.4871
      vertex 5.15299 -24.5 45.4871
    endloop
  endfacet
  facet normal 0 1 0
    outer loop
      vertex 3.44666 -24.5 45.2168
      vertex -3.44666 -24.5 45.2168
      vertex -5.15299 -24.5 45.4871
    endloop
  endfacet
  facet normal 0 1 -0
    outer loop
      vertex 1.72674 -24.5 45.0543
      vertex -3.44666 -24.5 45.2168
      vertex 3.44666 -24.5 45.2168
    endloop
  endfacet
  facet normal 0 1 0
    outer loop
      vertex 1.72674 -24.5 45.0543
      vertex -1.72674 -24.5 45.0543
      vertex -3.44666 -24.5 45.2168
    endloop
  endfacet
  facet normal -0 1 0
    outer loop
      vertex -1.72674 -24.5 45.0543
      vertex 1.72674 -24.5 45.0543
      vertex -5.05167e-15 -24.5 45
    endloop
  endfacet
  facet normal 0 -1 0
    outer loop
      vertex -1.72674 -26.5 99.9457
      vertex 1.72674 -26.5 99.9457
      vertex 1.68389e-15 -26.5 100
    endloop
  endfacet
  facet normal 0 -1 0
    outer loop
      vertex -3.44666 -26.5 99.7832
      vertex 1.72674 -26.5 99.9457
      vertex -1.72674 -26.5 99.9457
    endloop
  endfacet
  facet normal 0 -1 0
    outer loop
      vertex -3.44666 -26.5 99.7832
      vertex 3.44666 -26.5 99.7832
      vertex 1.72674 -26.5 99.9457
    endloop
  endfacet
  facet normal 0 -1 0
    outer loop
      vertex -5.15299 -26.5 99.5129
      vertex 3.44666 -26.5 99.7832
      vertex -3.44666 -26.5 99.7832
    endloop
  endfacet
  facet normal 0 -1 0
    outer loop
      vertex -5.15299 -26.5 99.5129
      vertex 5.15299 -26.5 99.5129
      vertex 3.44666 -26.5 99.7832
    endloop
  endfacet
  facet normal 0 -1 0
    outer loop
      vertex -6.83897 -26.5 99.136
      vertex 5.15299 -26.5 99.5129
      vertex -5.15299 -26.5 99.5129
    endloop
  endfacet
  facet normal 0 -1 0
    outer loop
      vertex -6.83897 -26.5 99.136
      vertex 6.83897 -26.5 99.136
      vertex 5.15299 -26.5 99.5129
    endloop
  endfacet
  facet normal 0 -1 0
    outer loop
      vertex -8.49797 -26.5 98.6541
      vertex 6.83897 -26.5 99.136
      vertex -6.83897 -26.5 99.136
    endloop
  endfacet
  facet normal 0 -1 0
    outer loop
      vertex -8.49797 -26.5 98.6541
      vertex 8.49797 -26.5 98.6541
      vertex 6.83897 -26.5 99.136
    endloop
  endfacet
  facet normal 0 -1 0
    outer loop
      vertex -10.1234 -26.5 98.0689
      vertex 8.49797 -26.5 98.6541
      vertex -8.49797 -26.5 98.6541
    endloop
  endfacet
  facet normal 0 -1 0
    outer loop
      vertex -10.1234 -26.5 98.0689
      vertex 10.1234 -26.5 98.0689
      vertex 8.49797 -26.5 98.6541
    endloop
  endfacet
  facet normal 0 -1 0
    outer loop
      vertex -11.7089 -26.5 97.3827
      vertex 10.1234 -26.5 98.0689
      vertex -10.1234 -26.5 98.0689
    endloop
  endfacet
  facet normal 0 -1 0
    outer loop
      vertex -11.7089 -26.5 97.3827
      vertex 11.7089 -26.5 97.3827
      vertex 10.1234 -26.5 98.0689
    endloop
  endfacet
  facet normal 0 -1 0
    outer loop
      vertex -13.2482 -26.5 96.5984
      vertex 11.7089 -26.5 97.3827
      vertex -11.7089 -26.5 97.3827
    endloop
  endfacet
  facet normal 0 -1 0
    outer loop
      vertex -13.2482 -26.5 96.5984
      vertex 13.2482 -26.5 96.5984
      vertex 11.7089 -26.5 97.3827
    endloop
  endfacet
  facet normal 0 -1 0
    outer loop
      vertex -14.7352 -26.5 95.719
      vertex 13.2482 -26.5 96.5984
      vertex -13.2482 -26.5 96.5984
    endloop
  endfacet
  facet normal 0 -1 0
    outer loop
      vertex -14.7352 -26.5 95.719
      vertex 14.7352 -26.5 95.719
      vertex 13.2482 -26.5 96.5984
    endloop
  endfacet
  facet normal 0 -1 0
    outer loop
      vertex -16.1641 -26.5 94.748
      vertex 14.7352 -26.5 95.719
      vertex -14.7352 -26.5 95.719
    endloop
  endfacet
  facet normal 0 -1 0
    outer loop
      vertex -16.1641 -26.5 94.748
      vertex 16.1641 -26.5 94.748
      vertex 14.7352 -26.5 95.719
    endloop
  endfacet
  facet normal 0 -1 0
    outer loop
      vertex -17.5292 -26.5 93.6891
      vertex 16.1641 -26.5 94.748
      vertex -16.1641 -26.5 94.748
    endloop
  endfacet
  facet normal 0 -1 0
    outer loop
      vertex -17.5292 -26.5 93.6891
      vertex 17.5292 -26.5 93.6891
      vertex 16.1641 -26.5 94.748
    endloop
  endfacet
  facet normal 0 -1 0
    outer loop
      vertex -18.825 -26.5 92.5466
      vertex 17.5292 -26.5 93.6891
      vertex -17.5292 -26.5 93.6891
    endloop
  endfacet
  facet normal 0 -1 0
    outer loop
      vertex -18.825 -26.5 92.5466
      vertex 18.825 -26.5 92.5466
      vertex 17.5292 -26.5 93.6891
    endloop
  endfacet
  facet normal 0 -1 0
    outer loop
      vertex -20.0466 -26.5 91.325
      vertex 18.825 -26.5 92.5466
      vertex -18.825 -26.5 92.5466
    endloop
  endfacet
  facet normal 0 -1 0
    outer loop
      vertex -20.0466 -26.5 91.325
      vertex 20.0466 -26.5 91.325
      vertex 18.825 -26.5 92.5466
    endloop
  endfacet
  facet normal 0 -1 0
    outer loop
      vertex -21.1891 -26.5 90.0292
      vertex 20.0466 -26.5 91.325
      vertex -20.0466 -26.5 91.325
    endloop
  endfacet
  facet normal 0 -1 0
    outer loop
      vertex -21.1891 -26.5 90.0292
      vertex 21.1891 -26.5 90.0292
      vertex 20.0466 -26.5 91.325
    endloop
  endfacet
  facet normal 0 -1 0
    outer loop
      vertex -22.248 -26.5 88.6641
      vertex 21.1891 -26.5 90.0292
      vertex -21.1891 -26.5 90.0292
    endloop
  endfacet
  facet normal 0 -1 0
    outer loop
      vertex -22.248 -26.5 88.6641
      vertex 22.248 -26.5 88.6641
      vertex 21.1891 -26.5 90.0292
    endloop
  endfacet
  facet normal 0 -1 0
    outer loop
      vertex -23.219 -26.5 87.2352
      vertex 22.248 -26.5 88.6641
      vertex -22.248 -26.5 88.6641
    endloop
  endfacet
  facet normal 0 -1 0
    outer loop
      vertex -23.219 -26.5 87.2352
      vertex 23.219 -26.5 87.2352
      vertex 22.248 -26.5 88.6641
    endloop
  endfacet
  facet normal 0 -1 0
    outer loop
      vertex -24.0984 -26.5 85.7482
      vertex 23.219 -26.5 87.2352
      vertex -23.219 -26.5 87.2352
    endloop
  endfacet
  facet normal 0 -1 0
    outer loop
      vertex -24.0984 -26.5 85.7482
      vertex 24.0984 -26.5 85.7482
      vertex 23.219 -26.5 87.2352
    endloop
  endfacet
  facet normal 0 -1 0
    outer loop
      vertex -24.8827 -26.5 84.2089
      vertex 24.0984 -26.5 85.7482
      vertex -24.0984 -26.5 85.7482
    endloop
  endfacet
  facet normal 0 -1 0
    outer loop
      vertex -24.8827 -26.5 84.2089
      vertex 24.8827 -26.5 84.2089
      vertex 24.0984 -26.5 85.7482
    endloop
  endfacet
  facet normal 0 -1 0
    outer loop
      vertex -25.5689 -26.5 82.6234
      vertex 24.8827 -26.5 84.2089
      vertex -24.8827 -26.5 84.2089
    endloop
  endfacet
  facet normal 0 -1 0
    outer loop
      vertex -25.5689 -26.5 82.6234
      vertex 25.5689 -26.5 82.6234
      vertex 24.8827 -26.5 84.2089
    endloop
  endfacet
  facet normal 0 -1 0
    outer loop
      vertex -26.1541 -26.5 80.998
      vertex 25.5689 -26.5 82.6234
      vertex -25.5689 -26.5 82.6234
    endloop
  endfacet
  facet normal 0 -1 0
    outer loop
      vertex -26.1541 -26.5 80.998
      vertex 26.1541 -26.5 80.998
      vertex 25.5689 -26.5 82.6234
    endloop
  endfacet
  facet normal 0 -1 0
    outer loop
      vertex -26.636 -26.5 79.339
      vertex 26.1541 -26.5 80.998
      vertex -26.1541 -26.5 80.998
    endloop
  endfacet
  facet normal 0 -1 0
    outer loop
      vertex -26.636 -26.5 79.339
      vertex 26.636 -26.5 79.339
      vertex 26.1541 -26.5 80.998
    endloop
  endfacet
  facet normal 0 -1 0
    outer loop
      vertex -27.0129 -26.5 77.653
      vertex 26.636 -26.5 79.339
      vertex -26.636 -26.5 79.339
    endloop
  endfacet
  facet normal 0 -1 0
    outer loop
      vertex -27.0129 -26.5 77.653
      vertex 27.0129 -26.5 77.653
      vertex 26.636 -26.5 79.339
    endloop
  endfacet
  facet normal 0 -1 0
    outer loop
      vertex -27.2832 -26.5 75.9467
      vertex 27.0129 -26.5 77.653
      vertex -27.0129 -26.5 77.653
    endloop
  endfacet
  facet normal 0 -1 0
    outer loop
      vertex -27.2832 -26.5 75.9467
      vertex 27.2832 -26.5 75.9467
      vertex 27.0129 -26.5 77.653
    endloop
  endfacet
  facet normal 0 -1 0
    outer loop
      vertex -27.4457 -26.5 74.2267
      vertex 27.2832 -26.5 75.9467
      vertex -27.2832 -26.5 75.9467
    endloop
  endfacet
  facet normal 0 -1 0
    outer loop
      vertex -27.4457 -26.5 74.2267
      vertex 27.4457 -26.5 74.2267
      vertex 27.2832 -26.5 75.9467
    endloop
  endfacet
  facet normal 0 -1 0
    outer loop
      vertex -27.5 -26.5 72.5
      vertex 27.4457 -26.5 74.2267
      vertex -27.4457 -26.5 74.2267
    endloop
  endfacet
  facet normal 0 -1 0
    outer loop
      vertex -27.5 -26.5 72.5
      vertex 27.5 -26.5 72.5
      vertex 27.4457 -26.5 74.2267
    endloop
  endfacet
  facet normal 0 -1 0
    outer loop
      vertex -27.4457 -26.5 70.7733
      vertex 27.5 -26.5 72.5
      vertex -27.5 -26.5 72.5
    endloop
  endfacet
  facet normal 0 -1 0
    outer loop
      vertex -27.4457 -26.5 70.7733
      vertex 27.4457 -26.5 70.7733
      vertex 27.5 -26.5 72.5
    endloop
  endfacet
  facet normal 0 -1 0
    outer loop
      vertex -27.2832 -26.5 69.0533
      vertex 27.4457 -26.5 70.7733
      vertex -27.4457 -26.5 70.7733
    endloop
  endfacet
  facet normal 0 -1 0
    outer loop
      vertex -27.2832 -26.5 69.0533
      vertex 27.2832 -26.5 69.0533
      vertex 27.4457 -26.5 70.7733
    endloop
  endfacet
  facet normal 0 -1 0
    outer loop
      vertex -27.0129 -26.5 67.347
      vertex 27.2832 -26.5 69.0533
      vertex -27.2832 -26.5 69.0533
    endloop
  endfacet
  facet normal 0 -1 0
    outer loop
      vertex -27.0129 -26.5 67.347
      vertex 27.0129 -26.5 67.347
      vertex 27.2832 -26.5 69.0533
    endloop
  endfacet
  facet normal 0 -1 0
    outer loop
      vertex -26.636 -26.5 65.661
      vertex 27.0129 -26.5 67.347
      vertex -27.0129 -26.5 67.347
    endloop
  endfacet
  facet normal 0 -1 0
    outer loop
      vertex -26.636 -26.5 65.661
      vertex 26.636 -26.5 65.661
      vertex 27.0129 -26.5 67.347
    endloop
  endfacet
  facet normal 0 -1 0
    outer loop
      vertex -26.1541 -26.5 64.002
      vertex 26.636 -26.5 65.661
      vertex -26.636 -26.5 65.661
    endloop
  endfacet
  facet normal 0 -1 0
    outer loop
      vertex -26.1541 -26.5 64.002
      vertex 26.1541 -26.5 64.002
      vertex 26.636 -26.5 65.661
    endloop
  endfacet
  facet normal 0 -1 0
    outer loop
      vertex -25.5689 -26.5 62.3766
      vertex 26.1541 -26.5 64.002
      vertex -26.1541 -26.5 64.002
    endloop
  endfacet
  facet normal 0 -1 0
    outer loop
      vertex -25.5689 -26.5 62.3766
      vertex 25.5689 -26.5 62.3766
      vertex 26.1541 -26.5 64.002
    endloop
  endfacet
  facet normal 0 -1 0
    outer loop
      vertex -24.8827 -26.5 60.7911
      vertex 25.5689 -26.5 62.3766
      vertex -25.5689 -26.5 62.3766
    endloop
  endfacet
  facet normal 0 -1 0
    outer loop
      vertex -24.8827 -26.5 60.7911
      vertex 24.8827 -26.5 60.7911
      vertex 25.5689 -26.5 62.3766
    endloop
  endfacet
  facet normal 0 -1 0
    outer loop
      vertex -24.0984 -26.5 59.2518
      vertex 24.8827 -26.5 60.7911
      vertex -24.8827 -26.5 60.7911
    endloop
  endfacet
  facet normal 0 -1 0
    outer loop
      vertex -24.0984 -26.5 59.2518
      vertex 24.0984 -26.5 59.2518
      vertex 24.8827 -26.5 60.7911
    endloop
  endfacet
  facet normal 0 -1 0
    outer loop
      vertex -23.219 -26.5 57.7648
      vertex 24.0984 -26.5 59.2518
      vertex -24.0984 -26.5 59.2518
    endloop
  endfacet
  facet normal 0 -1 0
    outer loop
      vertex -23.219 -26.5 57.7648
      vertex 23.219 -26.5 57.7648
      vertex 24.0984 -26.5 59.2518
    endloop
  endfacet
  facet normal 0 -1 0
    outer loop
      vertex -22.248 -26.5 56.3359
      vertex 23.219 -26.5 57.7648
      vertex -23.219 -26.5 57.7648
    endloop
  endfacet
  facet normal 0 -1 0
    outer loop
      vertex -22.248 -26.5 56.3359
      vertex 22.248 -26.5 56.3359
      vertex 23.219 -26.5 57.7648
    endloop
  endfacet
  facet normal 0 -1 0
    outer loop
      vertex -21.1891 -26.5 54.9708
      vertex 22.248 -26.5 56.3359
      vertex -22.248 -26.5 56.3359
    endloop
  endfacet
  facet normal 0 -1 0
    outer loop
      vertex -21.1891 -26.5 54.9708
      vertex 21.1891 -26.5 54.9708
      vertex 22.248 -26.5 56.3359
    endloop
  endfacet
  facet normal 0 -1 0
    outer loop
      vertex -20.0466 -26.5 53.675
      vertex 21.1891 -26.5 54.9708
      vertex -21.1891 -26.5 54.9708
    endloop
  endfacet
  facet normal 0 -1 0
    outer loop
      vertex -20.0466 -26.5 53.675
      vertex 20.0466 -26.5 53.675
      vertex 21.1891 -26.5 54.9708
    endloop
  endfacet
  facet normal 0 -1 0
    outer loop
      vertex -18.825 -26.5 52.4534
      vertex 20.0466 -26.5 53.675
      vertex -20.0466 -26.5 53.675
    endloop
  endfacet
  facet normal 0 -1 0
    outer loop
      vertex -18.825 -26.5 52.4534
      vertex 18.825 -26.5 52.4534
      vertex 20.0466 -26.5 53.675
    endloop
  endfacet
  facet normal 0 -1 0
    outer loop
      vertex -17.5292 -26.5 51.3109
      vertex 18.825 -26.5 52.4534
      vertex -18.825 -26.5 52.4534
    endloop
  endfacet
  facet normal 0 -1 0
    outer loop
      vertex -17.5292 -26.5 51.3109
      vertex 17.5292 -26.5 51.3109
      vertex 18.825 -26.5 52.4534
    endloop
  endfacet
  facet normal 0 -1 0
    outer loop
      vertex -16.1641 -26.5 50.252
      vertex 17.5292 -26.5 51.3109
      vertex -17.5292 -26.5 51.3109
    endloop
  endfacet
  facet normal 0 -1 0
    outer loop
      vertex -16.1641 -26.5 50.252
      vertex 16.1641 -26.5 50.252
      vertex 17.5292 -26.5 51.3109
    endloop
  endfacet
  facet normal 0 -1 0
    outer loop
      vertex -14.7352 -26.5 49.281
      vertex 16.1641 -26.5 50.252
      vertex -16.1641 -26.5 50.252
    endloop
  endfacet
  facet normal 0 -1 0
    outer loop
      vertex -14.7352 -26.5 49.281
      vertex 14.7352 -26.5 49.281
      vertex 16.1641 -26.5 50.252
    endloop
  endfacet
  facet normal 0 -1 0
    outer loop
      vertex -13.2482 -26.5 48.4016
      vertex 14.7352 -26.5 49.281
      vertex -14.7352 -26.5 49.281
    endloop
  endfacet
  facet normal 0 -1 0
    outer loop
      vertex -13.2482 -26.5 48.4016
      vertex 13.2482 -26.5 48.4016
      vertex 14.7352 -26.5 49.281
    endloop
  endfacet
  facet normal 0 -1 0
    outer loop
      vertex -11.7089 -26.5 47.6173
      vertex 13.2482 -26.5 48.4016
      vertex -13.2482 -26.5 48.4016
    endloop
  endfacet
  facet normal 0 -1 0
    outer loop
      vertex -11.7089 -26.5 47.6173
      vertex 11.7089 -26.5 47.6173
      vertex 13.2482 -26.5 48.4016
    endloop
  endfacet
  facet normal 0 -1 0
    outer loop
      vertex -10.1234 -26.5 46.9311
      vertex 11.7089 -26.5 47.6173
      vertex -11.7089 -26.5 47.6173
    endloop
  endfacet
  facet normal 0 -1 0
    outer loop
      vertex -10.1234 -26.5 46.9311
      vertex 10.1234 -26.5 46.9311
      vertex 11.7089 -26.5 47.6173
    endloop
  endfacet
  facet normal 0 -1 0
    outer loop
      vertex -8.49797 -26.5 46.3459
      vertex 10.1234 -26.5 46.9311
      vertex -10.1234 -26.5 46.9311
    endloop
  endfacet
  facet normal 0 -1 0
    outer loop
      vertex -8.49797 -26.5 46.3459
      vertex 8.49797 -26.5 46.3459
      vertex 10.1234 -26.5 46.9311
    endloop
  endfacet
  facet normal 0 -1 0
    outer loop
      vertex -6.83897 -26.5 45.864
      vertex 8.49797 -26.5 46.3459
      vertex -8.49797 -26.5 46.3459
    endloop
  endfacet
  facet normal 0 -1 0
    outer loop
      vertex -6.83897 -26.5 45.864
      vertex 6.83897 -26.5 45.864
      vertex 8.49797 -26.5 46.3459
    endloop
  endfacet
  facet normal 0 -1 0
    outer loop
      vertex -5.15299 -26.5 45.4871
      vertex 6.83897 -26.5 45.864
      vertex -6.83897 -26.5 45.864
    endloop
  endfacet
  facet normal 0 -1 0
    outer loop
      vertex -5.15299 -26.5 45.4871
      vertex 5.15299 -26.5 45.4871
      vertex 6.83897 -26.5 45.864
    endloop
  endfacet
  facet normal 0 -1 0
    outer loop
      vertex -3.44666 -26.5 45.2168
      vertex 5.15299 -26.5 45.4871
      vertex -5.15299 -26.5 45.4871
    endloop
  endfacet
  facet normal 0 -1 0
    outer loop
      vertex -3.44666 -26.5 45.2168
      vertex 3.44666 -26.5 45.2168
      vertex 5.15299 -26.5 45.4871
    endloop
  endfacet
  facet normal 0 -1 0
    outer loop
      vertex -1.72674 -26.5 45.0543
      vertex 3.44666 -26.5 45.2168
      vertex -3.44666 -26.5 45.2168
    endloop
  endfacet
  facet normal 0 -1 0
    outer loop
      vertex -1.72674 -26.5 45.0543
      vertex 1.72674 -26.5 45.0543
      vertex 3.44666 -26.5 45.2168
    endloop
  endfacet
  facet normal -0 -1 0
    outer loop
      vertex 1.72674 -26.5 45.0543
      vertex -1.72674 -26.5 45.0543
      vertex -5.05167e-15 -26.5 45
    endloop
  endfacet
endsolid OpenSCAD_Model
