solid OpenSCAD_Model
  facet normal -1 0 0
    outer loop
      vertex -80.5 -28.5 -82.5
      vertex -80.5 -2 82.5
      vertex -80.5 -2 -82.5
    endloop
  endfacet
  facet normal -1 -0 0
    outer loop
      vertex -80.5 -2 82.5
      vertex -80.5 -28.5 -82.5
      vertex -80.5 -28.5 82.5
    endloop
  endfacet
  facet normal -0 0 1
    outer loop
      vertex -80.5 -2 82.5
      vertex 80.5 -28.5 82.5
      vertex 80.5 -2 82.5
    endloop
  endfacet
  facet normal 0 0 1
    outer loop
      vertex 80.5 -28.5 82.5
      vertex -80.5 -2 82.5
      vertex -80.5 -28.5 82.5
    endloop
  endfacet
  facet normal 1 0 0
    outer loop
      vertex 80.5 -2 82.5
      vertex 80.5 -6.40427 -56
      vertex 80.5 -2 -56
    endloop
  endfacet
  facet normal 1 0 0
    outer loop
      vertex 80.5 -28.5 -82.5
      vertex 80.5 -6.40427 -56
      vertex 80.5 -28.5 82.5
    endloop
  endfacet
  facet normal 1 -0 0
    outer loop
      vertex 80.5 -28.5 82.5
      vertex 80.5 -6.40427 -56
      vertex 80.5 -2 82.5
    endloop
  endfacet
  facet normal 1 -0 0
    outer loop
      vertex 80.5 -6.40427 -61
      vertex 80.5 -2 -82.5
      vertex 80.5 -2 -61
    endloop
  endfacet
  facet normal 1 0 0
    outer loop
      vertex 80.5 -6.40427 -61
      vertex 80.5 -28.5 -82.5
      vertex 80.5 -2 -82.5
    endloop
  endfacet
  facet normal 1 0 0
    outer loop
      vertex 80.5 -6.40427 -56
      vertex 80.5 -28.5 -82.5
      vertex 80.5 -6.40427 -61
    endloop
  endfacet
  facet normal 0 1 0
    outer loop
      vertex 80.5 -2 -61
      vertex 78.5 -2 -80.5
      vertex 78.5 -2 -61
    endloop
  endfacet
  facet normal 0 1 0
    outer loop
      vertex 80.5 -2 -82.5
      vertex 71.5 -2 -80.5
      vertex 78.5 -2 -80.5
    endloop
  endfacet
  facet normal 0 1 0
    outer loop
      vertex 71.5 -2 -80.5
      vertex 80.5 -2 -82.5
      vertex 69.5 -2 -80.5
    endloop
  endfacet
  facet normal 0 1 0
    outer loop
      vertex 69.5 -2 -80.5
      vertex 80.5 -2 -82.5
      vertex -69.5 -2 -80.5
    endloop
  endfacet
  facet normal 0 1 0
    outer loop
      vertex -80.5 -2 -82.5
      vertex -69.5 -2 -80.5
      vertex 80.5 -2 -82.5
    endloop
  endfacet
  facet normal 0 1 0
    outer loop
      vertex -69.5 -2 -80.5
      vertex -80.5 -2 -82.5
      vertex -71.5 -2 -80.5
    endloop
  endfacet
  facet normal 0 1 -0
    outer loop
      vertex 80.5 -2 -82.5
      vertex 78.5 -2 -80.5
      vertex 80.5 -2 -61
    endloop
  endfacet
  facet normal 0 1 -0
    outer loop
      vertex 71.5 -2 -80.5
      vertex 69.5 -2 -61
      vertex 71.5 -2 -61
    endloop
  endfacet
  facet normal 0 1 0
    outer loop
      vertex 69.5 -2 -61
      vertex 71.5 -2 -80.5
      vertex 69.5 -2 -80.5
    endloop
  endfacet
  facet normal 0 1 0
    outer loop
      vertex 71.5 -2 60.5
      vertex 69.5 -2 58.5
      vertex -71.5 -2 60.5
    endloop
  endfacet
  facet normal 0 1 -0
    outer loop
      vertex 71.5 -2 -56
      vertex 69.5 -2 58.5
      vertex 71.5 -2 60.5
    endloop
  endfacet
  facet normal 0 1 0
    outer loop
      vertex 69.5 -2 58.5
      vertex 71.5 -2 -56
      vertex 69.5 -2 -56
    endloop
  endfacet
  facet normal 0 1 -0
    outer loop
      vertex -69.5 -2 58.5
      vertex -71.5 -2 60.5
      vertex 69.5 -2 58.5
    endloop
  endfacet
  facet normal 0 1 0
    outer loop
      vertex -71.5 -2 -80.5
      vertex -69.5 -2 58.5
      vertex -69.5 -2 -80.5
    endloop
  endfacet
  facet normal 0 1 0
    outer loop
      vertex -69.5 -2 58.5
      vertex -71.5 -2 -80.5
      vertex -71.5 -2 60.5
    endloop
  endfacet
  facet normal 0 1 0
    outer loop
      vertex 80.5 -2 82.5
      vertex 78.5 -2 80.5
      vertex -80.5 -2 82.5
    endloop
  endfacet
  facet normal 0 1 -0
    outer loop
      vertex 80.5 -2 -56
      vertex 78.5 -2 80.5
      vertex 80.5 -2 82.5
    endloop
  endfacet
  facet normal 0 1 0
    outer loop
      vertex 78.5 -2 80.5
      vertex 80.5 -2 -56
      vertex 78.5 -2 -56
    endloop
  endfacet
  facet normal 0 1 -0
    outer loop
      vertex -78.5 -2 80.5
      vertex -80.5 -2 82.5
      vertex 78.5 -2 80.5
    endloop
  endfacet
  facet normal 0 1 -0
    outer loop
      vertex -78.5 -2 -80.5
      vertex -80.5 -2 82.5
      vertex -78.5 -2 80.5
    endloop
  endfacet
  facet normal 0 1 0
    outer loop
      vertex -78.5 -2 -80.5
      vertex -80.5 -2 -82.5
      vertex -80.5 -2 82.5
    endloop
  endfacet
  facet normal 0 1 0
    outer loop
      vertex -71.5 -2 -80.5
      vertex -80.5 -2 -82.5
      vertex -78.5 -2 -80.5
    endloop
  endfacet
  facet normal 0 0 -1
    outer loop
      vertex -80.5 -28.5 -82.5
      vertex 80.5 -2 -82.5
      vertex 80.5 -28.5 -82.5
    endloop
  endfacet
  facet normal -0 0 -1
    outer loop
      vertex 80.5 -2 -82.5
      vertex -80.5 -28.5 -82.5
      vertex -80.5 -2 -82.5
    endloop
  endfacet
  facet normal 0 -1 0
    outer loop
      vertex -80.5 -28.5 82.5
      vertex 0 -28.5 56.5
      vertex 80.5 -28.5 82.5
    endloop
  endfacet
  facet normal 0 -1 0
    outer loop
      vertex -80.5 -28.5 82.5
      vertex -4.23836 -28.5 56.3668
      vertex 0 -28.5 56.5
    endloop
  endfacet
  facet normal 0 -1 0
    outer loop
      vertex -80.5 -28.5 82.5
      vertex -8.45999 -28.5 55.9677
      vertex -4.23836 -28.5 56.3668
    endloop
  endfacet
  facet normal 0 -1 0
    outer loop
      vertex -80.5 -28.5 82.5
      vertex -12.6482 -28.5 55.3044
      vertex -8.45999 -28.5 55.9677
    endloop
  endfacet
  facet normal 0 -1 0
    outer loop
      vertex -80.5 -28.5 82.5
      vertex -16.7866 -28.5 54.3794
      vertex -12.6482 -28.5 55.3044
    endloop
  endfacet
  facet normal 0 -1 0
    outer loop
      vertex -80.5 -28.5 82.5
      vertex -20.8586 -28.5 53.1963
      vertex -16.7866 -28.5 54.3794
    endloop
  endfacet
  facet normal 0 -1 0
    outer loop
      vertex -80.5 -28.5 82.5
      vertex -24.8484 -28.5 51.7599
      vertex -20.8586 -28.5 53.1963
    endloop
  endfacet
  facet normal 0 -1 0
    outer loop
      vertex -80.5 -28.5 82.5
      vertex -28.7401 -28.5 50.0758
      vertex -24.8484 -28.5 51.7599
    endloop
  endfacet
  facet normal 0 -1 0
    outer loop
      vertex -80.5 -28.5 82.5
      vertex -32.5184 -28.5 48.1507
      vertex -28.7401 -28.5 50.0758
    endloop
  endfacet
  facet normal 0 -1 0
    outer loop
      vertex -80.5 -28.5 82.5
      vertex -36.1683 -28.5 45.9921
      vertex -32.5184 -28.5 48.1507
    endloop
  endfacet
  facet normal 0 -1 0
    outer loop
      vertex -80.5 -28.5 82.5
      vertex -39.6755 -28.5 43.6086
      vertex -36.1683 -28.5 45.9921
    endloop
  endfacet
  facet normal 0 -1 0
    outer loop
      vertex -80.5 -28.5 82.5
      vertex -43.0261 -28.5 41.0096
      vertex -39.6755 -28.5 43.6086
    endloop
  endfacet
  facet normal 0 -1 0
    outer loop
      vertex -80.5 -28.5 82.5
      vertex -46.2069 -28.5 38.2054
      vertex -43.0261 -28.5 41.0096
    endloop
  endfacet
  facet normal 0 -1 0
    outer loop
      vertex -80.5 -28.5 82.5
      vertex -49.2054 -28.5 35.2069
      vertex -46.2069 -28.5 38.2054
    endloop
  endfacet
  facet normal 0 -1 0
    outer loop
      vertex -80.5 -28.5 82.5
      vertex -52.0096 -28.5 32.0261
      vertex -49.2054 -28.5 35.2069
    endloop
  endfacet
  facet normal 0 -1 0
    outer loop
      vertex -80.5 -28.5 82.5
      vertex -54.6086 -28.5 28.6755
      vertex -52.0096 -28.5 32.0261
    endloop
  endfacet
  facet normal 0 -1 0
    outer loop
      vertex -80.5 -28.5 82.5
      vertex -56.9921 -28.5 25.1683
      vertex -54.6086 -28.5 28.6755
    endloop
  endfacet
  facet normal 0 -1 0
    outer loop
      vertex -80.5 -28.5 82.5
      vertex -59.1507 -28.5 21.5184
      vertex -56.9921 -28.5 25.1683
    endloop
  endfacet
  facet normal 0 -1 0
    outer loop
      vertex -80.5 -28.5 82.5
      vertex -61.0758 -28.5 17.7401
      vertex -59.1507 -28.5 21.5184
    endloop
  endfacet
  facet normal 0 -1 0
    outer loop
      vertex -80.5 -28.5 82.5
      vertex -62.7599 -28.5 13.8484
      vertex -61.0758 -28.5 17.7401
    endloop
  endfacet
  facet normal 0 -1 0
    outer loop
      vertex -80.5 -28.5 82.5
      vertex -64.1963 -28.5 9.85865
      vertex -62.7599 -28.5 13.8484
    endloop
  endfacet
  facet normal 0 -1 0
    outer loop
      vertex -80.5 -28.5 82.5
      vertex -65.3794 -28.5 5.78657
      vertex -64.1963 -28.5 9.85865
    endloop
  endfacet
  facet normal 0 -1 0
    outer loop
      vertex -80.5 -28.5 82.5
      vertex -66.3044 -28.5 1.64824
      vertex -65.3794 -28.5 5.78657
    endloop
  endfacet
  facet normal 0 -1 0
    outer loop
      vertex -80.5 -28.5 82.5
      vertex -66.9677 -28.5 -2.54001
      vertex -66.3044 -28.5 1.64824
    endloop
  endfacet
  facet normal 0 -1 0
    outer loop
      vertex -80.5 -28.5 82.5
      vertex -67.3668 -28.5 -6.76164
      vertex -66.9677 -28.5 -2.54001
    endloop
  endfacet
  facet normal 0 -1 0
    outer loop
      vertex -80.5 -28.5 82.5
      vertex -67.5 -28.5 -11
      vertex -67.3668 -28.5 -6.76164
    endloop
  endfacet
  facet normal 0 -1 0
    outer loop
      vertex -80.5 -28.5 -82.5
      vertex -67.5 -28.5 -11
      vertex -80.5 -28.5 82.5
    endloop
  endfacet
  facet normal 0 -1 -0
    outer loop
      vertex -67.5 -28.5 -11
      vertex -80.5 -28.5 -82.5
      vertex -67.3668 -28.5 -15.2384
    endloop
  endfacet
  facet normal 0 -1 -0
    outer loop
      vertex -4.23836 -28.5 -78.3668
      vertex -80.5 -28.5 -82.5
      vertex 0 -28.5 -78.5
    endloop
  endfacet
  facet normal 0 -1 -0
    outer loop
      vertex -8.45999 -28.5 -77.9677
      vertex -80.5 -28.5 -82.5
      vertex -4.23836 -28.5 -78.3668
    endloop
  endfacet
  facet normal 0 -1 -0
    outer loop
      vertex -12.6482 -28.5 -77.3044
      vertex -80.5 -28.5 -82.5
      vertex -8.45999 -28.5 -77.9677
    endloop
  endfacet
  facet normal 0 -1 -0
    outer loop
      vertex -16.7866 -28.5 -76.3794
      vertex -80.5 -28.5 -82.5
      vertex -12.6482 -28.5 -77.3044
    endloop
  endfacet
  facet normal 0 -1 -0
    outer loop
      vertex -20.8586 -28.5 -75.1963
      vertex -80.5 -28.5 -82.5
      vertex -16.7866 -28.5 -76.3794
    endloop
  endfacet
  facet normal 0 -1 -0
    outer loop
      vertex -24.8484 -28.5 -73.7599
      vertex -80.5 -28.5 -82.5
      vertex -20.8586 -28.5 -75.1963
    endloop
  endfacet
  facet normal 0 -1 -0
    outer loop
      vertex -28.7401 -28.5 -72.0758
      vertex -80.5 -28.5 -82.5
      vertex -24.8484 -28.5 -73.7599
    endloop
  endfacet
  facet normal 0 -1 -0
    outer loop
      vertex -32.5184 -28.5 -70.1507
      vertex -80.5 -28.5 -82.5
      vertex -28.7401 -28.5 -72.0758
    endloop
  endfacet
  facet normal 0 -1 -0
    outer loop
      vertex -36.1683 -28.5 -67.9921
      vertex -80.5 -28.5 -82.5
      vertex -32.5184 -28.5 -70.1507
    endloop
  endfacet
  facet normal 0 -1 -0
    outer loop
      vertex -39.6755 -28.5 -65.6086
      vertex -80.5 -28.5 -82.5
      vertex -36.1683 -28.5 -67.9921
    endloop
  endfacet
  facet normal 0 -1 -0
    outer loop
      vertex -43.0261 -28.5 -63.0096
      vertex -80.5 -28.5 -82.5
      vertex -39.6755 -28.5 -65.6086
    endloop
  endfacet
  facet normal 0 -1 -0
    outer loop
      vertex -46.2069 -28.5 -60.2054
      vertex -80.5 -28.5 -82.5
      vertex -43.0261 -28.5 -63.0096
    endloop
  endfacet
  facet normal 0 -1 -0
    outer loop
      vertex -49.2054 -28.5 -57.2069
      vertex -80.5 -28.5 -82.5
      vertex -46.2069 -28.5 -60.2054
    endloop
  endfacet
  facet normal 0 -1 -0
    outer loop
      vertex -52.0096 -28.5 -54.0261
      vertex -80.5 -28.5 -82.5
      vertex -49.2054 -28.5 -57.2069
    endloop
  endfacet
  facet normal 0 -1 -0
    outer loop
      vertex -54.6086 -28.5 -50.6755
      vertex -80.5 -28.5 -82.5
      vertex -52.0096 -28.5 -54.0261
    endloop
  endfacet
  facet normal 0 -1 -0
    outer loop
      vertex -56.9921 -28.5 -47.1683
      vertex -80.5 -28.5 -82.5
      vertex -54.6086 -28.5 -50.6755
    endloop
  endfacet
  facet normal 0 -1 -0
    outer loop
      vertex -59.1507 -28.5 -43.5184
      vertex -80.5 -28.5 -82.5
      vertex -56.9921 -28.5 -47.1683
    endloop
  endfacet
  facet normal 0 -1 -0
    outer loop
      vertex -61.0758 -28.5 -39.7401
      vertex -80.5 -28.5 -82.5
      vertex -59.1507 -28.5 -43.5184
    endloop
  endfacet
  facet normal 0 -1 -0
    outer loop
      vertex -62.7599 -28.5 -35.8484
      vertex -80.5 -28.5 -82.5
      vertex -61.0758 -28.5 -39.7401
    endloop
  endfacet
  facet normal 0 -1 -0
    outer loop
      vertex -64.1963 -28.5 -31.8586
      vertex -80.5 -28.5 -82.5
      vertex -62.7599 -28.5 -35.8484
    endloop
  endfacet
  facet normal 0 -1 -0
    outer loop
      vertex -65.3794 -28.5 -27.7866
      vertex -80.5 -28.5 -82.5
      vertex -64.1963 -28.5 -31.8586
    endloop
  endfacet
  facet normal 0 -1 -0
    outer loop
      vertex -66.3044 -28.5 -23.6482
      vertex -80.5 -28.5 -82.5
      vertex -65.3794 -28.5 -27.7866
    endloop
  endfacet
  facet normal 0 -1 -0
    outer loop
      vertex -66.9677 -28.5 -19.46
      vertex -80.5 -28.5 -82.5
      vertex -66.3044 -28.5 -23.6482
    endloop
  endfacet
  facet normal 0 -1 -0
    outer loop
      vertex -67.3668 -28.5 -15.2384
      vertex -80.5 -28.5 -82.5
      vertex -66.9677 -28.5 -19.46
    endloop
  endfacet
  facet normal 0 -1 0
    outer loop
      vertex 4.23836 -28.5 56.3668
      vertex 80.5 -28.5 82.5
      vertex 0 -28.5 56.5
    endloop
  endfacet
  facet normal 0 -1 0
    outer loop
      vertex 8.45999 -28.5 55.9677
      vertex 80.5 -28.5 82.5
      vertex 4.23836 -28.5 56.3668
    endloop
  endfacet
  facet normal 0 -1 0
    outer loop
      vertex 12.6482 -28.5 55.3044
      vertex 80.5 -28.5 82.5
      vertex 8.45999 -28.5 55.9677
    endloop
  endfacet
  facet normal 0 -1 0
    outer loop
      vertex 16.7866 -28.5 54.3794
      vertex 80.5 -28.5 82.5
      vertex 12.6482 -28.5 55.3044
    endloop
  endfacet
  facet normal 0 -1 0
    outer loop
      vertex 20.8586 -28.5 53.1963
      vertex 80.5 -28.5 82.5
      vertex 16.7866 -28.5 54.3794
    endloop
  endfacet
  facet normal 0 -1 0
    outer loop
      vertex 24.8484 -28.5 51.7599
      vertex 80.5 -28.5 82.5
      vertex 20.8586 -28.5 53.1963
    endloop
  endfacet
  facet normal 0 -1 0
    outer loop
      vertex 28.7401 -28.5 50.0758
      vertex 80.5 -28.5 82.5
      vertex 24.8484 -28.5 51.7599
    endloop
  endfacet
  facet normal 0 -1 0
    outer loop
      vertex 32.5184 -28.5 48.1507
      vertex 80.5 -28.5 82.5
      vertex 28.7401 -28.5 50.0758
    endloop
  endfacet
  facet normal 0 -1 0
    outer loop
      vertex 36.1683 -28.5 45.9921
      vertex 80.5 -28.5 82.5
      vertex 32.5184 -28.5 48.1507
    endloop
  endfacet
  facet normal 0 -1 0
    outer loop
      vertex 39.6755 -28.5 43.6086
      vertex 80.5 -28.5 82.5
      vertex 36.1683 -28.5 45.9921
    endloop
  endfacet
  facet normal 0 -1 0
    outer loop
      vertex 43.0261 -28.5 41.0096
      vertex 80.5 -28.5 82.5
      vertex 39.6755 -28.5 43.6086
    endloop
  endfacet
  facet normal 0 -1 0
    outer loop
      vertex 46.2069 -28.5 38.2054
      vertex 80.5 -28.5 82.5
      vertex 43.0261 -28.5 41.0096
    endloop
  endfacet
  facet normal 0 -1 0
    outer loop
      vertex 49.2054 -28.5 35.2069
      vertex 80.5 -28.5 82.5
      vertex 46.2069 -28.5 38.2054
    endloop
  endfacet
  facet normal 0 -1 0
    outer loop
      vertex 52.0096 -28.5 32.0261
      vertex 80.5 -28.5 82.5
      vertex 49.2054 -28.5 35.2069
    endloop
  endfacet
  facet normal 0 -1 0
    outer loop
      vertex 54.6086 -28.5 28.6755
      vertex 80.5 -28.5 82.5
      vertex 52.0096 -28.5 32.0261
    endloop
  endfacet
  facet normal 0 -1 0
    outer loop
      vertex 56.9921 -28.5 25.1683
      vertex 80.5 -28.5 82.5
      vertex 54.6086 -28.5 28.6755
    endloop
  endfacet
  facet normal 0 -1 0
    outer loop
      vertex 59.1507 -28.5 21.5184
      vertex 80.5 -28.5 82.5
      vertex 56.9921 -28.5 25.1683
    endloop
  endfacet
  facet normal 0 -1 0
    outer loop
      vertex 61.0758 -28.5 17.7401
      vertex 80.5 -28.5 82.5
      vertex 59.1507 -28.5 21.5184
    endloop
  endfacet
  facet normal 0 -1 0
    outer loop
      vertex 62.7599 -28.5 13.8484
      vertex 80.5 -28.5 82.5
      vertex 61.0758 -28.5 17.7401
    endloop
  endfacet
  facet normal 0 -1 0
    outer loop
      vertex 64.1963 -28.5 9.85865
      vertex 80.5 -28.5 82.5
      vertex 62.7599 -28.5 13.8484
    endloop
  endfacet
  facet normal 0 -1 0
    outer loop
      vertex 65.3794 -28.5 5.78657
      vertex 80.5 -28.5 82.5
      vertex 64.1963 -28.5 9.85865
    endloop
  endfacet
  facet normal 0 -1 0
    outer loop
      vertex 66.3044 -28.5 1.64824
      vertex 80.5 -28.5 82.5
      vertex 65.3794 -28.5 5.78657
    endloop
  endfacet
  facet normal 0 -1 0
    outer loop
      vertex 66.9677 -28.5 -2.54001
      vertex 80.5 -28.5 82.5
      vertex 66.3044 -28.5 1.64824
    endloop
  endfacet
  facet normal 0 -1 0
    outer loop
      vertex 67.3668 -28.5 -6.76164
      vertex 80.5 -28.5 82.5
      vertex 66.9677 -28.5 -2.54001
    endloop
  endfacet
  facet normal 0 -1 0
    outer loop
      vertex 67.5 -28.5 -11
      vertex 80.5 -28.5 82.5
      vertex 67.3668 -28.5 -6.76164
    endloop
  endfacet
  facet normal 0 -1 0
    outer loop
      vertex 80.5 -28.5 -82.5
      vertex 67.5 -28.5 -11
      vertex 67.3668 -28.5 -15.2384
    endloop
  endfacet
  facet normal 0 -1 0
    outer loop
      vertex 80.5 -28.5 -82.5
      vertex 67.3668 -28.5 -15.2384
      vertex 66.9677 -28.5 -19.46
    endloop
  endfacet
  facet normal 0 -1 0
    outer loop
      vertex 80.5 -28.5 -82.5
      vertex 0 -28.5 -78.5
      vertex -80.5 -28.5 -82.5
    endloop
  endfacet
  facet normal 0 -1 0
    outer loop
      vertex 67.5 -28.5 -11
      vertex 80.5 -28.5 -82.5
      vertex 80.5 -28.5 82.5
    endloop
  endfacet
  facet normal 0 -1 0
    outer loop
      vertex 66.3044 -28.5 -23.6482
      vertex 80.5 -28.5 -82.5
      vertex 66.9677 -28.5 -19.46
    endloop
  endfacet
  facet normal 0 -1 0
    outer loop
      vertex 65.3794 -28.5 -27.7866
      vertex 80.5 -28.5 -82.5
      vertex 66.3044 -28.5 -23.6482
    endloop
  endfacet
  facet normal 0 -1 0
    outer loop
      vertex 64.1963 -28.5 -31.8586
      vertex 80.5 -28.5 -82.5
      vertex 65.3794 -28.5 -27.7866
    endloop
  endfacet
  facet normal 0 -1 0
    outer loop
      vertex 62.7599 -28.5 -35.8484
      vertex 80.5 -28.5 -82.5
      vertex 64.1963 -28.5 -31.8586
    endloop
  endfacet
  facet normal 0 -1 0
    outer loop
      vertex 61.0758 -28.5 -39.7401
      vertex 80.5 -28.5 -82.5
      vertex 62.7599 -28.5 -35.8484
    endloop
  endfacet
  facet normal 0 -1 0
    outer loop
      vertex 59.1507 -28.5 -43.5184
      vertex 80.5 -28.5 -82.5
      vertex 61.0758 -28.5 -39.7401
    endloop
  endfacet
  facet normal 0 -1 0
    outer loop
      vertex 56.9921 -28.5 -47.1683
      vertex 80.5 -28.5 -82.5
      vertex 59.1507 -28.5 -43.5184
    endloop
  endfacet
  facet normal 0 -1 0
    outer loop
      vertex 54.6086 -28.5 -50.6755
      vertex 80.5 -28.5 -82.5
      vertex 56.9921 -28.5 -47.1683
    endloop
  endfacet
  facet normal 0 -1 0
    outer loop
      vertex 52.0096 -28.5 -54.0261
      vertex 80.5 -28.5 -82.5
      vertex 54.6086 -28.5 -50.6755
    endloop
  endfacet
  facet normal 0 -1 0
    outer loop
      vertex 49.2054 -28.5 -57.2069
      vertex 80.5 -28.5 -82.5
      vertex 52.0096 -28.5 -54.0261
    endloop
  endfacet
  facet normal 0 -1 0
    outer loop
      vertex 46.2069 -28.5 -60.2054
      vertex 80.5 -28.5 -82.5
      vertex 49.2054 -28.5 -57.2069
    endloop
  endfacet
  facet normal 0 -1 0
    outer loop
      vertex 43.0261 -28.5 -63.0096
      vertex 80.5 -28.5 -82.5
      vertex 46.2069 -28.5 -60.2054
    endloop
  endfacet
  facet normal 0 -1 0
    outer loop
      vertex 39.6755 -28.5 -65.6086
      vertex 80.5 -28.5 -82.5
      vertex 43.0261 -28.5 -63.0096
    endloop
  endfacet
  facet normal 0 -1 0
    outer loop
      vertex 36.1683 -28.5 -67.9921
      vertex 80.5 -28.5 -82.5
      vertex 39.6755 -28.5 -65.6086
    endloop
  endfacet
  facet normal 0 -1 0
    outer loop
      vertex 32.5184 -28.5 -70.1507
      vertex 80.5 -28.5 -82.5
      vertex 36.1683 -28.5 -67.9921
    endloop
  endfacet
  facet normal 0 -1 0
    outer loop
      vertex 28.7401 -28.5 -72.0758
      vertex 80.5 -28.5 -82.5
      vertex 32.5184 -28.5 -70.1507
    endloop
  endfacet
  facet normal 0 -1 0
    outer loop
      vertex 24.8484 -28.5 -73.7599
      vertex 80.5 -28.5 -82.5
      vertex 28.7401 -28.5 -72.0758
    endloop
  endfacet
  facet normal 0 -1 0
    outer loop
      vertex 20.8586 -28.5 -75.1963
      vertex 80.5 -28.5 -82.5
      vertex 24.8484 -28.5 -73.7599
    endloop
  endfacet
  facet normal 0 -1 0
    outer loop
      vertex 16.7866 -28.5 -76.3794
      vertex 80.5 -28.5 -82.5
      vertex 20.8586 -28.5 -75.1963
    endloop
  endfacet
  facet normal 0 -1 0
    outer loop
      vertex 12.6482 -28.5 -77.3044
      vertex 80.5 -28.5 -82.5
      vertex 16.7866 -28.5 -76.3794
    endloop
  endfacet
  facet normal 0 -1 0
    outer loop
      vertex 8.45999 -28.5 -77.9677
      vertex 80.5 -28.5 -82.5
      vertex 12.6482 -28.5 -77.3044
    endloop
  endfacet
  facet normal 0 -1 0
    outer loop
      vertex 4.23836 -28.5 -78.3668
      vertex 80.5 -28.5 -82.5
      vertex 8.45999 -28.5 -77.9677
    endloop
  endfacet
  facet normal 0 -1 0
    outer loop
      vertex 0 -28.5 -78.5
      vertex 80.5 -28.5 -82.5
      vertex 4.23836 -28.5 -78.3668
    endloop
  endfacet
  facet normal 1 -0 0
    outer loop
      vertex -69.5 -26.501 58.5
      vertex -69.5 -2 -80.5
      vertex -69.5 -2 58.5
    endloop
  endfacet
  facet normal 1 0 0
    outer loop
      vertex -69.5 -2 -80.5
      vertex -69.5 -26.501 58.5
      vertex -69.5 -26.501 -80.5
    endloop
  endfacet
  facet normal 0 0 -1
    outer loop
      vertex -69.5 -26.501 58.5
      vertex 69.5 -2 58.5
      vertex 69.5 -26.501 58.5
    endloop
  endfacet
  facet normal -0 0 -1
    outer loop
      vertex 69.5 -2 58.5
      vertex -69.5 -26.501 58.5
      vertex -69.5 -2 58.5
    endloop
  endfacet
  facet normal -1 0 0
    outer loop
      vertex 69.5 -2 -80.5
      vertex 69.5 -8.34386 -61
      vertex 69.5 -2 -61
    endloop
  endfacet
  facet normal -1 -0 0
    outer loop
      vertex 69.5 -8.34386 -61
      vertex 69.5 -26.501 -80.5
      vertex 69.5 -8.34386 -56
    endloop
  endfacet
  facet normal -1 0 0
    outer loop
      vertex 69.5 -26.501 -80.5
      vertex 69.5 -8.34386 -61
      vertex 69.5 -2 -80.5
    endloop
  endfacet
  facet normal -1 0 0
    outer loop
      vertex 69.5 -8.34386 -56
      vertex 69.5 -2 58.5
      vertex 69.5 -2 -56
    endloop
  endfacet
  facet normal -1 0 0
    outer loop
      vertex 69.5 -26.501 58.5
      vertex 69.5 -8.34386 -56
      vertex 69.5 -26.501 -80.5
    endloop
  endfacet
  facet normal -1 0 0
    outer loop
      vertex 69.5 -8.34386 -56
      vertex 69.5 -26.501 58.5
      vertex 69.5 -2 58.5
    endloop
  endfacet
  facet normal -0 0 1
    outer loop
      vertex -69.5 -2 -80.5
      vertex 69.5 -26.501 -80.5
      vertex 69.5 -2 -80.5
    endloop
  endfacet
  facet normal 0 0 1
    outer loop
      vertex 69.5 -26.501 -80.5
      vertex -69.5 -2 -80.5
      vertex -69.5 -26.501 -80.5
    endloop
  endfacet
  facet normal 0 1 0
    outer loop
      vertex 69.5 -26.501 58.5
      vertex 0 -26.501 56.5
      vertex -69.5 -26.501 58.5
    endloop
  endfacet
  facet normal 0 1 0
    outer loop
      vertex 69.5 -26.501 58.5
      vertex 4.23836 -26.501 56.3668
      vertex 0 -26.501 56.5
    endloop
  endfacet
  facet normal 0 1 0
    outer loop
      vertex 69.5 -26.501 58.5
      vertex 8.45999 -26.501 55.9677
      vertex 4.23836 -26.501 56.3668
    endloop
  endfacet
  facet normal 0 1 0
    outer loop
      vertex 69.5 -26.501 58.5
      vertex 12.6482 -26.501 55.3044
      vertex 8.45999 -26.501 55.9677
    endloop
  endfacet
  facet normal 0 1 0
    outer loop
      vertex 69.5 -26.501 58.5
      vertex 16.7866 -26.501 54.3794
      vertex 12.6482 -26.501 55.3044
    endloop
  endfacet
  facet normal 0 1 0
    outer loop
      vertex 69.5 -26.501 58.5
      vertex 20.8586 -26.501 53.1963
      vertex 16.7866 -26.501 54.3794
    endloop
  endfacet
  facet normal 0 1 0
    outer loop
      vertex 69.5 -26.501 58.5
      vertex 24.8484 -26.501 51.7599
      vertex 20.8586 -26.501 53.1963
    endloop
  endfacet
  facet normal 0 1 0
    outer loop
      vertex 69.5 -26.501 58.5
      vertex 28.7401 -26.501 50.0758
      vertex 24.8484 -26.501 51.7599
    endloop
  endfacet
  facet normal 0 1 0
    outer loop
      vertex 69.5 -26.501 58.5
      vertex 32.5184 -26.501 48.1507
      vertex 28.7401 -26.501 50.0758
    endloop
  endfacet
  facet normal 0 1 0
    outer loop
      vertex 69.5 -26.501 58.5
      vertex 36.1683 -26.501 45.9921
      vertex 32.5184 -26.501 48.1507
    endloop
  endfacet
  facet normal 0 1 0
    outer loop
      vertex 69.5 -26.501 58.5
      vertex 39.6755 -26.501 43.6086
      vertex 36.1683 -26.501 45.9921
    endloop
  endfacet
  facet normal 0 1 0
    outer loop
      vertex 69.5 -26.501 58.5
      vertex 43.0261 -26.501 41.0096
      vertex 39.6755 -26.501 43.6086
    endloop
  endfacet
  facet normal 0 1 0
    outer loop
      vertex 69.5 -26.501 58.5
      vertex 46.2069 -26.501 38.2054
      vertex 43.0261 -26.501 41.0096
    endloop
  endfacet
  facet normal 0 1 0
    outer loop
      vertex 69.5 -26.501 58.5
      vertex 49.2054 -26.501 35.2069
      vertex 46.2069 -26.501 38.2054
    endloop
  endfacet
  facet normal 0 1 0
    outer loop
      vertex 69.5 -26.501 58.5
      vertex 52.0096 -26.501 32.0261
      vertex 49.2054 -26.501 35.2069
    endloop
  endfacet
  facet normal 0 1 0
    outer loop
      vertex 69.5 -26.501 58.5
      vertex 54.6086 -26.501 28.6755
      vertex 52.0096 -26.501 32.0261
    endloop
  endfacet
  facet normal 0 1 0
    outer loop
      vertex 69.5 -26.501 58.5
      vertex 56.9921 -26.501 25.1683
      vertex 54.6086 -26.501 28.6755
    endloop
  endfacet
  facet normal 0 1 0
    outer loop
      vertex 69.5 -26.501 58.5
      vertex 59.1507 -26.501 21.5184
      vertex 56.9921 -26.501 25.1683
    endloop
  endfacet
  facet normal 0 1 0
    outer loop
      vertex 69.5 -26.501 58.5
      vertex 61.0758 -26.501 17.7401
      vertex 59.1507 -26.501 21.5184
    endloop
  endfacet
  facet normal 0 1 0
    outer loop
      vertex 69.5 -26.501 58.5
      vertex 62.7599 -26.501 13.8484
      vertex 61.0758 -26.501 17.7401
    endloop
  endfacet
  facet normal 0 1 0
    outer loop
      vertex 69.5 -26.501 58.5
      vertex 64.1963 -26.501 9.85865
      vertex 62.7599 -26.501 13.8484
    endloop
  endfacet
  facet normal 0 1 0
    outer loop
      vertex 69.5 -26.501 58.5
      vertex 65.3794 -26.501 5.78657
      vertex 64.1963 -26.501 9.85865
    endloop
  endfacet
  facet normal 0 1 0
    outer loop
      vertex 69.5 -26.501 58.5
      vertex 66.3044 -26.501 1.64824
      vertex 65.3794 -26.501 5.78657
    endloop
  endfacet
  facet normal 0 1 0
    outer loop
      vertex 69.5 -26.501 58.5
      vertex 66.9677 -26.501 -2.54001
      vertex 66.3044 -26.501 1.64824
    endloop
  endfacet
  facet normal 0 1 0
    outer loop
      vertex 69.5 -26.501 58.5
      vertex 67.3668 -26.501 -6.76164
      vertex 66.9677 -26.501 -2.54001
    endloop
  endfacet
  facet normal 0 1 0
    outer loop
      vertex 69.5 -26.501 58.5
      vertex 67.5 -26.501 -11
      vertex 67.3668 -26.501 -6.76164
    endloop
  endfacet
  facet normal 0 1 0
    outer loop
      vertex 4.23836 -26.501 -78.3668
      vertex 69.5 -26.501 -80.5
      vertex 0 -26.501 -78.5
    endloop
  endfacet
  facet normal 0 1 0
    outer loop
      vertex 8.45999 -26.501 -77.9677
      vertex 69.5 -26.501 -80.5
      vertex 4.23836 -26.501 -78.3668
    endloop
  endfacet
  facet normal 0 1 0
    outer loop
      vertex 12.6482 -26.501 -77.3044
      vertex 69.5 -26.501 -80.5
      vertex 8.45999 -26.501 -77.9677
    endloop
  endfacet
  facet normal 0 1 0
    outer loop
      vertex 16.7866 -26.501 -76.3794
      vertex 69.5 -26.501 -80.5
      vertex 12.6482 -26.501 -77.3044
    endloop
  endfacet
  facet normal 0 1 0
    outer loop
      vertex 20.8586 -26.501 -75.1963
      vertex 69.5 -26.501 -80.5
      vertex 16.7866 -26.501 -76.3794
    endloop
  endfacet
  facet normal 0 1 0
    outer loop
      vertex 24.8484 -26.501 -73.7599
      vertex 69.5 -26.501 -80.5
      vertex 20.8586 -26.501 -75.1963
    endloop
  endfacet
  facet normal 0 1 0
    outer loop
      vertex 28.7401 -26.501 -72.0758
      vertex 69.5 -26.501 -80.5
      vertex 24.8484 -26.501 -73.7599
    endloop
  endfacet
  facet normal 0 1 0
    outer loop
      vertex 32.5184 -26.501 -70.1507
      vertex 69.5 -26.501 -80.5
      vertex 28.7401 -26.501 -72.0758
    endloop
  endfacet
  facet normal 0 1 0
    outer loop
      vertex 36.1683 -26.501 -67.9921
      vertex 69.5 -26.501 -80.5
      vertex 32.5184 -26.501 -70.1507
    endloop
  endfacet
  facet normal 0 1 0
    outer loop
      vertex 39.6755 -26.501 -65.6086
      vertex 69.5 -26.501 -80.5
      vertex 36.1683 -26.501 -67.9921
    endloop
  endfacet
  facet normal 0 1 0
    outer loop
      vertex 43.0261 -26.501 -63.0096
      vertex 69.5 -26.501 -80.5
      vertex 39.6755 -26.501 -65.6086
    endloop
  endfacet
  facet normal 0 1 0
    outer loop
      vertex 46.2069 -26.501 -60.2054
      vertex 69.5 -26.501 -80.5
      vertex 43.0261 -26.501 -63.0096
    endloop
  endfacet
  facet normal 0 1 0
    outer loop
      vertex 49.2054 -26.501 -57.2069
      vertex 69.5 -26.501 -80.5
      vertex 46.2069 -26.501 -60.2054
    endloop
  endfacet
  facet normal 0 1 0
    outer loop
      vertex 52.0096 -26.501 -54.0261
      vertex 69.5 -26.501 -80.5
      vertex 49.2054 -26.501 -57.2069
    endloop
  endfacet
  facet normal 0 1 0
    outer loop
      vertex 54.6086 -26.501 -50.6755
      vertex 69.5 -26.501 -80.5
      vertex 52.0096 -26.501 -54.0261
    endloop
  endfacet
  facet normal 0 1 0
    outer loop
      vertex 56.9921 -26.501 -47.1683
      vertex 69.5 -26.501 -80.5
      vertex 54.6086 -26.501 -50.6755
    endloop
  endfacet
  facet normal 0 1 0
    outer loop
      vertex 59.1507 -26.501 -43.5184
      vertex 69.5 -26.501 -80.5
      vertex 56.9921 -26.501 -47.1683
    endloop
  endfacet
  facet normal 0 1 0
    outer loop
      vertex 61.0758 -26.501 -39.7401
      vertex 69.5 -26.501 -80.5
      vertex 59.1507 -26.501 -43.5184
    endloop
  endfacet
  facet normal 0 1 0
    outer loop
      vertex 62.7599 -26.501 -35.8484
      vertex 69.5 -26.501 -80.5
      vertex 61.0758 -26.501 -39.7401
    endloop
  endfacet
  facet normal 0 1 0
    outer loop
      vertex 64.1963 -26.501 -31.8586
      vertex 69.5 -26.501 -80.5
      vertex 62.7599 -26.501 -35.8484
    endloop
  endfacet
  facet normal 0 1 0
    outer loop
      vertex 65.3794 -26.501 -27.7866
      vertex 69.5 -26.501 -80.5
      vertex 64.1963 -26.501 -31.8586
    endloop
  endfacet
  facet normal 0 1 0
    outer loop
      vertex 66.3044 -26.501 -23.6482
      vertex 69.5 -26.501 -80.5
      vertex 65.3794 -26.501 -27.7866
    endloop
  endfacet
  facet normal 0 1 0
    outer loop
      vertex 66.9677 -26.501 -19.46
      vertex 69.5 -26.501 -80.5
      vertex 66.3044 -26.501 -23.6482
    endloop
  endfacet
  facet normal 0 1 0
    outer loop
      vertex 67.3668 -26.501 -15.2384
      vertex 69.5 -26.501 -80.5
      vertex 66.9677 -26.501 -19.46
    endloop
  endfacet
  facet normal 0 1 0
    outer loop
      vertex 67.5 -26.501 -11
      vertex 69.5 -26.501 -80.5
      vertex 67.3668 -26.501 -15.2384
    endloop
  endfacet
  facet normal 0 1 -0
    outer loop
      vertex 69.5 -26.501 -80.5
      vertex 67.5 -26.501 -11
      vertex 69.5 -26.501 58.5
    endloop
  endfacet
  facet normal 0 1 -0
    outer loop
      vertex -4.23836 -26.501 56.3668
      vertex -69.5 -26.501 58.5
      vertex 0 -26.501 56.5
    endloop
  endfacet
  facet normal 0 1 -0
    outer loop
      vertex -8.45999 -26.501 55.9677
      vertex -69.5 -26.501 58.5
      vertex -4.23836 -26.501 56.3668
    endloop
  endfacet
  facet normal 0 1 -0
    outer loop
      vertex -12.6482 -26.501 55.3044
      vertex -69.5 -26.501 58.5
      vertex -8.45999 -26.501 55.9677
    endloop
  endfacet
  facet normal 0 1 -0
    outer loop
      vertex -16.7866 -26.501 54.3794
      vertex -69.5 -26.501 58.5
      vertex -12.6482 -26.501 55.3044
    endloop
  endfacet
  facet normal 0 1 -0
    outer loop
      vertex -20.8586 -26.501 53.1963
      vertex -69.5 -26.501 58.5
      vertex -16.7866 -26.501 54.3794
    endloop
  endfacet
  facet normal 0 1 -0
    outer loop
      vertex -24.8484 -26.501 51.7599
      vertex -69.5 -26.501 58.5
      vertex -20.8586 -26.501 53.1963
    endloop
  endfacet
  facet normal 0 1 -0
    outer loop
      vertex -28.7401 -26.501 50.0758
      vertex -69.5 -26.501 58.5
      vertex -24.8484 -26.501 51.7599
    endloop
  endfacet
  facet normal 0 1 -0
    outer loop
      vertex -32.5184 -26.501 48.1507
      vertex -69.5 -26.501 58.5
      vertex -28.7401 -26.501 50.0758
    endloop
  endfacet
  facet normal 0 1 -0
    outer loop
      vertex -36.1683 -26.501 45.9921
      vertex -69.5 -26.501 58.5
      vertex -32.5184 -26.501 48.1507
    endloop
  endfacet
  facet normal 0 1 -0
    outer loop
      vertex -39.6755 -26.501 43.6086
      vertex -69.5 -26.501 58.5
      vertex -36.1683 -26.501 45.9921
    endloop
  endfacet
  facet normal 0 1 -0
    outer loop
      vertex -43.0261 -26.501 41.0096
      vertex -69.5 -26.501 58.5
      vertex -39.6755 -26.501 43.6086
    endloop
  endfacet
  facet normal 0 1 -0
    outer loop
      vertex -46.2069 -26.501 38.2054
      vertex -69.5 -26.501 58.5
      vertex -43.0261 -26.501 41.0096
    endloop
  endfacet
  facet normal 0 1 -0
    outer loop
      vertex -49.2054 -26.501 35.2069
      vertex -69.5 -26.501 58.5
      vertex -46.2069 -26.501 38.2054
    endloop
  endfacet
  facet normal 0 1 -0
    outer loop
      vertex -52.0096 -26.501 32.0261
      vertex -69.5 -26.501 58.5
      vertex -49.2054 -26.501 35.2069
    endloop
  endfacet
  facet normal 0 1 -0
    outer loop
      vertex -54.6086 -26.501 28.6755
      vertex -69.5 -26.501 58.5
      vertex -52.0096 -26.501 32.0261
    endloop
  endfacet
  facet normal 0 1 -0
    outer loop
      vertex -56.9921 -26.501 25.1683
      vertex -69.5 -26.501 58.5
      vertex -54.6086 -26.501 28.6755
    endloop
  endfacet
  facet normal 0 1 -0
    outer loop
      vertex -59.1507 -26.501 21.5184
      vertex -69.5 -26.501 58.5
      vertex -56.9921 -26.501 25.1683
    endloop
  endfacet
  facet normal 0 1 -0
    outer loop
      vertex -61.0758 -26.501 17.7401
      vertex -69.5 -26.501 58.5
      vertex -59.1507 -26.501 21.5184
    endloop
  endfacet
  facet normal 0 1 -0
    outer loop
      vertex -62.7599 -26.501 13.8484
      vertex -69.5 -26.501 58.5
      vertex -61.0758 -26.501 17.7401
    endloop
  endfacet
  facet normal 0 1 -0
    outer loop
      vertex -64.1963 -26.501 9.85865
      vertex -69.5 -26.501 58.5
      vertex -62.7599 -26.501 13.8484
    endloop
  endfacet
  facet normal 0 1 -0
    outer loop
      vertex -65.3794 -26.501 5.78657
      vertex -69.5 -26.501 58.5
      vertex -64.1963 -26.501 9.85865
    endloop
  endfacet
  facet normal 0 1 -0
    outer loop
      vertex -66.3044 -26.501 1.64824
      vertex -69.5 -26.501 58.5
      vertex -65.3794 -26.501 5.78657
    endloop
  endfacet
  facet normal 0 1 -0
    outer loop
      vertex -66.9677 -26.501 -2.54001
      vertex -69.5 -26.501 58.5
      vertex -66.3044 -26.501 1.64824
    endloop
  endfacet
  facet normal 0 1 -0
    outer loop
      vertex -67.3668 -26.501 -6.76164
      vertex -69.5 -26.501 58.5
      vertex -66.9677 -26.501 -2.54001
    endloop
  endfacet
  facet normal 0 1 -0
    outer loop
      vertex -67.5 -26.501 -11
      vertex -69.5 -26.501 58.5
      vertex -67.3668 -26.501 -6.76164
    endloop
  endfacet
  facet normal 0 1 0
    outer loop
      vertex -67.5 -26.501 -11
      vertex -69.5 -26.501 -80.5
      vertex -69.5 -26.501 58.5
    endloop
  endfacet
  facet normal 0 1 0
    outer loop
      vertex -67.3668 -26.501 -15.2384
      vertex -69.5 -26.501 -80.5
      vertex -67.5 -26.501 -11
    endloop
  endfacet
  facet normal 0 1 0
    outer loop
      vertex -66.9677 -26.501 -19.46
      vertex -69.5 -26.501 -80.5
      vertex -67.3668 -26.501 -15.2384
    endloop
  endfacet
  facet normal 0 1 0
    outer loop
      vertex -66.3044 -26.501 -23.6482
      vertex -69.5 -26.501 -80.5
      vertex -66.9677 -26.501 -19.46
    endloop
  endfacet
  facet normal 0 1 0
    outer loop
      vertex -65.3794 -26.501 -27.7866
      vertex -69.5 -26.501 -80.5
      vertex -66.3044 -26.501 -23.6482
    endloop
  endfacet
  facet normal 0 1 0
    outer loop
      vertex -64.1963 -26.501 -31.8586
      vertex -69.5 -26.501 -80.5
      vertex -65.3794 -26.501 -27.7866
    endloop
  endfacet
  facet normal 0 1 0
    outer loop
      vertex -62.7599 -26.501 -35.8484
      vertex -69.5 -26.501 -80.5
      vertex -64.1963 -26.501 -31.8586
    endloop
  endfacet
  facet normal 0 1 0
    outer loop
      vertex -61.0758 -26.501 -39.7401
      vertex -69.5 -26.501 -80.5
      vertex -62.7599 -26.501 -35.8484
    endloop
  endfacet
  facet normal 0 1 0
    outer loop
      vertex -59.1507 -26.501 -43.5184
      vertex -69.5 -26.501 -80.5
      vertex -61.0758 -26.501 -39.7401
    endloop
  endfacet
  facet normal 0 1 0
    outer loop
      vertex -56.9921 -26.501 -47.1683
      vertex -69.5 -26.501 -80.5
      vertex -59.1507 -26.501 -43.5184
    endloop
  endfacet
  facet normal 0 1 0
    outer loop
      vertex -54.6086 -26.501 -50.6755
      vertex -69.5 -26.501 -80.5
      vertex -56.9921 -26.501 -47.1683
    endloop
  endfacet
  facet normal 0 1 0
    outer loop
      vertex -52.0096 -26.501 -54.0261
      vertex -69.5 -26.501 -80.5
      vertex -54.6086 -26.501 -50.6755
    endloop
  endfacet
  facet normal 0 1 0
    outer loop
      vertex -49.2054 -26.501 -57.2069
      vertex -69.5 -26.501 -80.5
      vertex -52.0096 -26.501 -54.0261
    endloop
  endfacet
  facet normal 0 1 0
    outer loop
      vertex -46.2069 -26.501 -60.2054
      vertex -69.5 -26.501 -80.5
      vertex -49.2054 -26.501 -57.2069
    endloop
  endfacet
  facet normal 0 1 0
    outer loop
      vertex -43.0261 -26.501 -63.0096
      vertex -69.5 -26.501 -80.5
      vertex -46.2069 -26.501 -60.2054
    endloop
  endfacet
  facet normal 0 1 0
    outer loop
      vertex -39.6755 -26.501 -65.6086
      vertex -69.5 -26.501 -80.5
      vertex -43.0261 -26.501 -63.0096
    endloop
  endfacet
  facet normal 0 1 0
    outer loop
      vertex -36.1683 -26.501 -67.9921
      vertex -69.5 -26.501 -80.5
      vertex -39.6755 -26.501 -65.6086
    endloop
  endfacet
  facet normal 0 1 0
    outer loop
      vertex -32.5184 -26.501 -70.1507
      vertex -69.5 -26.501 -80.5
      vertex -36.1683 -26.501 -67.9921
    endloop
  endfacet
  facet normal 0 1 0
    outer loop
      vertex -28.7401 -26.501 -72.0758
      vertex -69.5 -26.501 -80.5
      vertex -32.5184 -26.501 -70.1507
    endloop
  endfacet
  facet normal 0 1 0
    outer loop
      vertex -24.8484 -26.501 -73.7599
      vertex -69.5 -26.501 -80.5
      vertex -28.7401 -26.501 -72.0758
    endloop
  endfacet
  facet normal 0 1 0
    outer loop
      vertex -20.8586 -26.501 -75.1963
      vertex -69.5 -26.501 -80.5
      vertex -24.8484 -26.501 -73.7599
    endloop
  endfacet
  facet normal 0 1 0
    outer loop
      vertex -16.7866 -26.501 -76.3794
      vertex -69.5 -26.501 -80.5
      vertex -20.8586 -26.501 -75.1963
    endloop
  endfacet
  facet normal 0 1 0
    outer loop
      vertex -12.6482 -26.501 -77.3044
      vertex -69.5 -26.501 -80.5
      vertex -16.7866 -26.501 -76.3794
    endloop
  endfacet
  facet normal 0 1 0
    outer loop
      vertex -8.45999 -26.501 -77.9677
      vertex -69.5 -26.501 -80.5
      vertex -12.6482 -26.501 -77.3044
    endloop
  endfacet
  facet normal 0 1 0
    outer loop
      vertex -4.23836 -26.501 -78.3668
      vertex -69.5 -26.501 -80.5
      vertex -8.45999 -26.501 -77.9677
    endloop
  endfacet
  facet normal 0 1 0
    outer loop
      vertex 0 -26.501 -78.5
      vertex -69.5 -26.501 -80.5
      vertex -4.23836 -26.501 -78.3668
    endloop
  endfacet
  facet normal 0 1 0
    outer loop
      vertex -69.5 -26.501 -80.5
      vertex 0 -26.501 -78.5
      vertex 69.5 -26.501 -80.5
    endloop
  endfacet
  facet normal -0.999507 0 -0.0314103
    outer loop
      vertex 67.5 -28.5 -11
      vertex 67.3668 -26.501 -6.76164
      vertex 67.5 -26.501 -11
    endloop
  endfacet
  facet normal -0.999507 -0 -0.0314103
    outer loop
      vertex 67.3668 -26.501 -6.76164
      vertex 67.5 -28.5 -11
      vertex 67.3668 -28.5 -6.76164
    endloop
  endfacet
  facet normal 0.0314103 0 0.999507
    outer loop
      vertex -4.23836 -26.501 -78.3668
      vertex 0 -28.5 -78.5
      vertex 0 -26.501 -78.5
    endloop
  endfacet
  facet normal 0.0314103 0 0.999507
    outer loop
      vertex 0 -28.5 -78.5
      vertex -4.23836 -26.501 -78.3668
      vertex -4.23836 -28.5 -78.3668
    endloop
  endfacet
  facet normal -0.397148 0 -0.917755
    outer loop
      vertex 24.8484 -28.5 51.7599
      vertex 28.7401 -26.501 50.0758
      vertex 28.7401 -28.5 50.0758
    endloop
  endfacet
  facet normal -0.397148 0 -0.917755
    outer loop
      vertex 28.7401 -26.501 50.0758
      vertex 24.8484 -28.5 51.7599
      vertex 24.8484 -26.501 51.7599
    endloop
  endfacet
  facet normal 0.999507 0 -0.0314103
    outer loop
      vertex -67.3668 -28.5 -6.76164
      vertex -67.5 -26.501 -11
      vertex -67.3668 -26.501 -6.76164
    endloop
  endfacet
  facet normal 0.999507 0 -0.0314103
    outer loop
      vertex -67.5 -26.501 -11
      vertex -67.3668 -28.5 -6.76164
      vertex -67.5 -28.5 -11
    endloop
  endfacet
  facet normal 0.995562 0 -0.0941086
    outer loop
      vertex -66.9677 -28.5 -2.54001
      vertex -67.3668 -26.501 -6.76164
      vertex -66.9677 -26.501 -2.54001
    endloop
  endfacet
  facet normal 0.995562 0 -0.0941086
    outer loop
      vertex -67.3668 -26.501 -6.76164
      vertex -66.9677 -28.5 -2.54001
      vertex -67.3668 -28.5 -6.76164
    endloop
  endfacet
  facet normal 0.397147 0 0.917755
    outer loop
      vertex -28.7401 -26.501 -72.0758
      vertex -24.8484 -28.5 -73.7599
      vertex -24.8484 -26.501 -73.7599
    endloop
  endfacet
  facet normal 0.397147 0 0.917755
    outer loop
      vertex -24.8484 -28.5 -73.7599
      vertex -28.7401 -26.501 -72.0758
      vertex -28.7401 -28.5 -72.0758
    endloop
  endfacet
  facet normal -0.975917 0 -0.218143
    outer loop
      vertex 66.3044 -28.5 1.64824
      vertex 65.3794 -26.501 5.78657
      vertex 66.3044 -26.501 1.64824
    endloop
  endfacet
  facet normal -0.975917 -0 -0.218143
    outer loop
      vertex 65.3794 -26.501 5.78657
      vertex 66.3044 -28.5 1.64824
      vertex 65.3794 -28.5 5.78657
    endloop
  endfacet
  facet normal -0.891007 0 -0.453991
    outer loop
      vertex 61.0758 -28.5 17.7401
      vertex 59.1507 -26.501 21.5184
      vertex 61.0758 -26.501 17.7401
    endloop
  endfacet
  facet normal -0.891007 -0 -0.453991
    outer loop
      vertex 59.1507 -26.501 21.5184
      vertex 61.0758 -28.5 17.7401
      vertex 59.1507 -28.5 21.5184
    endloop
  endfacet
  facet normal -0.562084 0 -0.82708
    outer loop
      vertex 36.1683 -28.5 45.9921
      vertex 39.6755 -26.501 43.6086
      vertex 39.6755 -28.5 43.6086
    endloop
  endfacet
  facet normal -0.562084 0 -0.82708
    outer loop
      vertex 39.6755 -26.501 43.6086
      vertex 36.1683 -28.5 45.9921
      vertex 36.1683 -26.501 45.9921
    endloop
  endfacet
  facet normal -0.397147 0 0.917755
    outer loop
      vertex 24.8484 -26.501 -73.7599
      vertex 28.7401 -28.5 -72.0758
      vertex 28.7401 -26.501 -72.0758
    endloop
  endfacet
  facet normal -0.397147 0 0.917755
    outer loop
      vertex 28.7401 -28.5 -72.0758
      vertex 24.8484 -26.501 -73.7599
      vertex 24.8484 -28.5 -73.7599
    endloop
  endfacet
  facet normal 0.156434 0 0.987688
    outer loop
      vertex -12.6482 -26.501 -77.3044
      vertex -8.45999 -28.5 -77.9677
      vertex -8.45999 -26.501 -77.9677
    endloop
  endfacet
  facet normal 0.156434 0 0.987688
    outer loop
      vertex -8.45999 -28.5 -77.9677
      vertex -12.6482 -26.501 -77.3044
      vertex -12.6482 -28.5 -77.3044
    endloop
  endfacet
  facet normal -0.82708 0 -0.562084
    outer loop
      vertex 56.9921 -28.5 25.1683
      vertex 54.6086 -26.501 28.6755
      vertex 56.9921 -26.501 25.1683
    endloop
  endfacet
  facet normal -0.82708 -0 -0.562084
    outer loop
      vertex 54.6086 -26.501 28.6755
      vertex 56.9921 -28.5 25.1683
      vertex 54.6086 -28.5 28.6755
    endloop
  endfacet
  facet normal -0.0314103 0 -0.999507
    outer loop
      vertex 0 -28.5 56.5
      vertex 4.23836 -26.501 56.3668
      vertex 4.23836 -28.5 56.3668
    endloop
  endfacet
  facet normal -0.0314103 0 -0.999507
    outer loop
      vertex 4.23836 -26.501 56.3668
      vertex 0 -28.5 56.5
      vertex 0 -26.501 56.5
    endloop
  endfacet
  facet normal -0.338738 0 -0.940881
    outer loop
      vertex 20.8586 -28.5 53.1963
      vertex 24.8484 -26.501 51.7599
      vertex 24.8484 -28.5 51.7599
    endloop
  endfacet
  facet normal -0.338738 0 -0.940881
    outer loop
      vertex 24.8484 -26.501 51.7599
      vertex 20.8586 -28.5 53.1963
      vertex 20.8586 -26.501 53.1963
    endloop
  endfacet
  facet normal -0.218143 0 -0.975917
    outer loop
      vertex 12.6482 -28.5 55.3044
      vertex 16.7866 -26.501 54.3794
      vertex 16.7866 -28.5 54.3794
    endloop
  endfacet
  facet normal -0.218143 0 -0.975917
    outer loop
      vertex 16.7866 -26.501 54.3794
      vertex 12.6482 -28.5 55.3044
      vertex 12.6482 -26.501 55.3044
    endloop
  endfacet
  facet normal -0.987688 0 0.156434
    outer loop
      vertex 66.3044 -28.5 -23.6482
      vertex 66.9677 -26.501 -19.46
      vertex 66.3044 -26.501 -23.6482
    endloop
  endfacet
  facet normal -0.987688 0 0.156434
    outer loop
      vertex 66.9677 -26.501 -19.46
      vertex 66.3044 -28.5 -23.6482
      vertex 66.9677 -28.5 -19.46
    endloop
  endfacet
  facet normal -0.562084 0 0.82708
    outer loop
      vertex 36.1683 -26.501 -67.9921
      vertex 39.6755 -28.5 -65.6086
      vertex 39.6755 -26.501 -65.6086
    endloop
  endfacet
  facet normal -0.562084 0 0.82708
    outer loop
      vertex 39.6755 -28.5 -65.6086
      vertex 36.1683 -26.501 -67.9921
      vertex 36.1683 -28.5 -67.9921
    endloop
  endfacet
  facet normal -0.0314103 0 0.999507
    outer loop
      vertex 0 -26.501 -78.5
      vertex 4.23836 -28.5 -78.3668
      vertex 4.23836 -26.501 -78.3668
    endloop
  endfacet
  facet normal -0.0314103 0 0.999507
    outer loop
      vertex 4.23836 -28.5 -78.3668
      vertex 0 -26.501 -78.5
      vertex 0 -28.5 -78.5
    endloop
  endfacet
  facet normal -0.707107 0 0.707107
    outer loop
      vertex 46.2069 -28.5 -60.2054
      vertex 49.2054 -26.501 -57.2069
      vertex 46.2069 -26.501 -60.2054
    endloop
  endfacet
  facet normal -0.707107 0 0.707107
    outer loop
      vertex 49.2054 -26.501 -57.2069
      vertex 46.2069 -28.5 -60.2054
      vertex 49.2054 -28.5 -57.2069
    endloop
  endfacet
  facet normal 0.509041 0 -0.860742
    outer loop
      vertex -36.1683 -28.5 45.9921
      vertex -32.5184 -26.501 48.1507
      vertex -32.5184 -28.5 48.1507
    endloop
  endfacet
  facet normal 0.509041 0 -0.860742
    outer loop
      vertex -32.5184 -26.501 48.1507
      vertex -36.1683 -28.5 45.9921
      vertex -36.1683 -26.501 45.9921
    endloop
  endfacet
  facet normal 0.82708 0 -0.562084
    outer loop
      vertex -54.6086 -28.5 28.6755
      vertex -56.9921 -26.501 25.1683
      vertex -54.6086 -26.501 28.6755
    endloop
  endfacet
  facet normal 0.82708 0 -0.562084
    outer loop
      vertex -56.9921 -26.501 25.1683
      vertex -54.6086 -28.5 28.6755
      vertex -56.9921 -28.5 25.1683
    endloop
  endfacet
  facet normal 0.707107 0 -0.707107
    outer loop
      vertex -46.2069 -28.5 38.2054
      vertex -49.2054 -26.501 35.2069
      vertex -46.2069 -26.501 38.2054
    endloop
  endfacet
  facet normal 0.707107 0 -0.707107
    outer loop
      vertex -49.2054 -26.501 35.2069
      vertex -46.2069 -28.5 38.2054
      vertex -49.2054 -28.5 35.2069
    endloop
  endfacet
  facet normal 0.917755 0 -0.397148
    outer loop
      vertex -61.0758 -28.5 17.7401
      vertex -62.7599 -26.501 13.8484
      vertex -61.0758 -26.501 17.7401
    endloop
  endfacet
  facet normal 0.917755 0 -0.397148
    outer loop
      vertex -62.7599 -26.501 13.8484
      vertex -61.0758 -28.5 17.7401
      vertex -62.7599 -28.5 13.8484
    endloop
  endfacet
  facet normal 0.975917 0 -0.218143
    outer loop
      vertex -65.3794 -28.5 5.78657
      vertex -66.3044 -26.501 1.64824
      vertex -65.3794 -26.501 5.78657
    endloop
  endfacet
  facet normal 0.975917 0 -0.218143
    outer loop
      vertex -66.3044 -26.501 1.64824
      vertex -65.3794 -28.5 5.78657
      vertex -66.3044 -28.5 1.64824
    endloop
  endfacet
  facet normal 0.987688 -0 0.156434
    outer loop
      vertex -66.9677 -28.5 -19.46
      vertex -66.3044 -26.501 -23.6482
      vertex -66.9677 -26.501 -19.46
    endloop
  endfacet
  facet normal 0.987688 0 0.156434
    outer loop
      vertex -66.3044 -26.501 -23.6482
      vertex -66.9677 -28.5 -19.46
      vertex -66.3044 -28.5 -23.6482
    endloop
  endfacet
  facet normal 0.453991 0 0.891007
    outer loop
      vertex -32.5184 -26.501 -70.1507
      vertex -28.7401 -28.5 -72.0758
      vertex -28.7401 -26.501 -72.0758
    endloop
  endfacet
  facet normal 0.453991 0 0.891007
    outer loop
      vertex -28.7401 -28.5 -72.0758
      vertex -32.5184 -26.501 -70.1507
      vertex -32.5184 -28.5 -70.1507
    endloop
  endfacet
  facet normal 0.278992 0 0.960293
    outer loop
      vertex -20.8586 -26.501 -75.1963
      vertex -16.7866 -28.5 -76.3794
      vertex -16.7866 -26.501 -76.3794
    endloop
  endfacet
  facet normal 0.278992 0 0.960293
    outer loop
      vertex -16.7866 -28.5 -76.3794
      vertex -20.8586 -26.501 -75.1963
      vertex -20.8586 -28.5 -75.1963
    endloop
  endfacet
  facet normal 0.891007 -0 0.453991
    outer loop
      vertex -61.0758 -28.5 -39.7401
      vertex -59.1507 -26.501 -43.5184
      vertex -61.0758 -26.501 -39.7401
    endloop
  endfacet
  facet normal 0.891007 0 0.453991
    outer loop
      vertex -59.1507 -26.501 -43.5184
      vertex -61.0758 -28.5 -39.7401
      vertex -59.1507 -28.5 -43.5184
    endloop
  endfacet
  facet normal -0.940881 0 -0.338738
    outer loop
      vertex 64.1963 -28.5 9.85865
      vertex 62.7599 -26.501 13.8484
      vertex 64.1963 -26.501 9.85865
    endloop
  endfacet
  facet normal -0.940881 -0 -0.338738
    outer loop
      vertex 62.7599 -26.501 13.8484
      vertex 64.1963 -28.5 9.85865
      vertex 62.7599 -28.5 13.8484
    endloop
  endfacet
  facet normal -0.960293 0 -0.278992
    outer loop
      vertex 65.3794 -28.5 5.78657
      vertex 64.1963 -26.501 9.85865
      vertex 65.3794 -26.501 5.78657
    endloop
  endfacet
  facet normal -0.960293 -0 -0.278992
    outer loop
      vertex 64.1963 -26.501 9.85865
      vertex 65.3794 -28.5 5.78657
      vertex 64.1963 -28.5 9.85865
    endloop
  endfacet
  facet normal -0.917755 0 -0.397148
    outer loop
      vertex 62.7599 -28.5 13.8484
      vertex 61.0758 -26.501 17.7401
      vertex 62.7599 -26.501 13.8484
    endloop
  endfacet
  facet normal -0.917755 -0 -0.397148
    outer loop
      vertex 61.0758 -26.501 17.7401
      vertex 62.7599 -28.5 13.8484
      vertex 61.0758 -28.5 17.7401
    endloop
  endfacet
  facet normal -0.707107 0 -0.707107
    outer loop
      vertex 49.2054 -28.5 35.2069
      vertex 46.2069 -26.501 38.2054
      vertex 49.2054 -26.501 35.2069
    endloop
  endfacet
  facet normal -0.707107 -0 -0.707107
    outer loop
      vertex 46.2069 -26.501 38.2054
      vertex 49.2054 -28.5 35.2069
      vertex 46.2069 -28.5 38.2054
    endloop
  endfacet
  facet normal -0.790155 0 -0.612907
    outer loop
      vertex 54.6086 -28.5 28.6755
      vertex 52.0096 -26.501 32.0261
      vertex 54.6086 -26.501 28.6755
    endloop
  endfacet
  facet normal -0.790155 -0 -0.612907
    outer loop
      vertex 52.0096 -26.501 32.0261
      vertex 54.6086 -28.5 28.6755
      vertex 52.0096 -28.5 32.0261
    endloop
  endfacet
  facet normal -0.156434 0 -0.987688
    outer loop
      vertex 8.45999 -28.5 55.9677
      vertex 12.6482 -26.501 55.3044
      vertex 12.6482 -28.5 55.3044
    endloop
  endfacet
  facet normal -0.156434 0 -0.987688
    outer loop
      vertex 12.6482 -26.501 55.3044
      vertex 8.45999 -28.5 55.9677
      vertex 8.45999 -26.501 55.9677
    endloop
  endfacet
  facet normal -0.0941086 0 -0.995562
    outer loop
      vertex 4.23836 -28.5 56.3668
      vertex 8.45999 -26.501 55.9677
      vertex 8.45999 -28.5 55.9677
    endloop
  endfacet
  facet normal -0.0941086 0 -0.995562
    outer loop
      vertex 8.45999 -26.501 55.9677
      vertex 4.23836 -28.5 56.3668
      vertex 4.23836 -26.501 56.3668
    endloop
  endfacet
  facet normal -0.509041 0 -0.860742
    outer loop
      vertex 32.5184 -28.5 48.1507
      vertex 36.1683 -26.501 45.9921
      vertex 36.1683 -28.5 45.9921
    endloop
  endfacet
  facet normal -0.509041 0 -0.860742
    outer loop
      vertex 36.1683 -26.501 45.9921
      vertex 32.5184 -28.5 48.1507
      vertex 32.5184 -26.501 48.1507
    endloop
  endfacet
  facet normal -0.661312 0 -0.750111
    outer loop
      vertex 43.0261 -28.5 41.0096
      vertex 46.2069 -26.501 38.2054
      vertex 46.2069 -28.5 38.2054
    endloop
  endfacet
  facet normal -0.661312 0 -0.750111
    outer loop
      vertex 46.2069 -26.501 38.2054
      vertex 43.0261 -28.5 41.0096
      vertex 43.0261 -26.501 41.0096
    endloop
  endfacet
  facet normal 0.453991 0 -0.891007
    outer loop
      vertex -32.5184 -28.5 48.1507
      vertex -28.7401 -26.501 50.0758
      vertex -28.7401 -28.5 50.0758
    endloop
  endfacet
  facet normal 0.453991 0 -0.891007
    outer loop
      vertex -28.7401 -26.501 50.0758
      vertex -32.5184 -28.5 48.1507
      vertex -32.5184 -26.501 48.1507
    endloop
  endfacet
  facet normal 0.661312 0 -0.750111
    outer loop
      vertex -46.2069 -28.5 38.2054
      vertex -43.0261 -26.501 41.0096
      vertex -43.0261 -28.5 41.0096
    endloop
  endfacet
  facet normal 0.661312 0 -0.750111
    outer loop
      vertex -43.0261 -26.501 41.0096
      vertex -46.2069 -28.5 38.2054
      vertex -46.2069 -26.501 38.2054
    endloop
  endfacet
  facet normal 0.156434 0 -0.987688
    outer loop
      vertex -12.6482 -28.5 55.3044
      vertex -8.45999 -26.501 55.9677
      vertex -8.45999 -28.5 55.9677
    endloop
  endfacet
  facet normal 0.156434 0 -0.987688
    outer loop
      vertex -8.45999 -26.501 55.9677
      vertex -12.6482 -28.5 55.3044
      vertex -12.6482 -26.501 55.3044
    endloop
  endfacet
  facet normal 0.338738 0 -0.940881
    outer loop
      vertex -24.8484 -28.5 51.7599
      vertex -20.8586 -26.501 53.1963
      vertex -20.8586 -28.5 53.1963
    endloop
  endfacet
  facet normal 0.338738 0 -0.940881
    outer loop
      vertex -20.8586 -26.501 53.1963
      vertex -24.8484 -28.5 51.7599
      vertex -24.8484 -26.501 51.7599
    endloop
  endfacet
  facet normal 0.0314103 0 -0.999507
    outer loop
      vertex -4.23836 -28.5 56.3668
      vertex 0 -26.501 56.5
      vertex 0 -28.5 56.5
    endloop
  endfacet
  facet normal 0.0314103 0 -0.999507
    outer loop
      vertex 0 -26.501 56.5
      vertex -4.23836 -28.5 56.3668
      vertex -4.23836 -26.501 56.3668
    endloop
  endfacet
  facet normal -0.975917 0 0.218143
    outer loop
      vertex 65.3794 -28.5 -27.7866
      vertex 66.3044 -26.501 -23.6482
      vertex 65.3794 -26.501 -27.7866
    endloop
  endfacet
  facet normal -0.975917 0 0.218143
    outer loop
      vertex 66.3044 -26.501 -23.6482
      vertex 65.3794 -28.5 -27.7866
      vertex 66.3044 -28.5 -23.6482
    endloop
  endfacet
  facet normal -0.750111 0 0.661312
    outer loop
      vertex 49.2054 -28.5 -57.2069
      vertex 52.0096 -26.501 -54.0261
      vertex 49.2054 -26.501 -57.2069
    endloop
  endfacet
  facet normal -0.750111 0 0.661312
    outer loop
      vertex 52.0096 -26.501 -54.0261
      vertex 49.2054 -28.5 -57.2069
      vertex 52.0096 -28.5 -54.0261
    endloop
  endfacet
  facet normal -0.453991 0 0.891007
    outer loop
      vertex 28.7401 -26.501 -72.0758
      vertex 32.5184 -28.5 -70.1507
      vertex 32.5184 -26.501 -70.1507
    endloop
  endfacet
  facet normal -0.453991 0 0.891007
    outer loop
      vertex 32.5184 -28.5 -70.1507
      vertex 28.7401 -26.501 -72.0758
      vertex 28.7401 -28.5 -72.0758
    endloop
  endfacet
  facet normal -0.509042 0 0.860742
    outer loop
      vertex 32.5184 -26.501 -70.1507
      vertex 36.1683 -28.5 -67.9921
      vertex 36.1683 -26.501 -67.9921
    endloop
  endfacet
  facet normal -0.509042 0 0.860742
    outer loop
      vertex 36.1683 -28.5 -67.9921
      vertex 32.5184 -26.501 -70.1507
      vertex 32.5184 -28.5 -70.1507
    endloop
  endfacet
  facet normal -0.612906 0 0.790156
    outer loop
      vertex 39.6755 -26.501 -65.6086
      vertex 43.0261 -28.5 -63.0096
      vertex 43.0261 -26.501 -63.0096
    endloop
  endfacet
  facet normal -0.612906 0 0.790156
    outer loop
      vertex 43.0261 -28.5 -63.0096
      vertex 39.6755 -26.501 -65.6086
      vertex 39.6755 -28.5 -65.6086
    endloop
  endfacet
  facet normal -0.0941086 0 0.995562
    outer loop
      vertex 4.23836 -26.501 -78.3668
      vertex 8.45999 -28.5 -77.9677
      vertex 8.45999 -26.501 -77.9677
    endloop
  endfacet
  facet normal -0.0941086 0 0.995562
    outer loop
      vertex 8.45999 -28.5 -77.9677
      vertex 4.23836 -26.501 -78.3668
      vertex 4.23836 -28.5 -78.3668
    endloop
  endfacet
  facet normal -0.156434 0 0.987688
    outer loop
      vertex 8.45999 -26.501 -77.9677
      vertex 12.6482 -28.5 -77.3044
      vertex 12.6482 -26.501 -77.3044
    endloop
  endfacet
  facet normal -0.156434 0 0.987688
    outer loop
      vertex 12.6482 -28.5 -77.3044
      vertex 8.45999 -26.501 -77.9677
      vertex 8.45999 -28.5 -77.9677
    endloop
  endfacet
  facet normal -0.278992 0 0.960293
    outer loop
      vertex 16.7866 -26.501 -76.3794
      vertex 20.8586 -28.5 -75.1963
      vertex 20.8586 -26.501 -75.1963
    endloop
  endfacet
  facet normal -0.278992 0 0.960293
    outer loop
      vertex 20.8586 -28.5 -75.1963
      vertex 16.7866 -26.501 -76.3794
      vertex 16.7866 -28.5 -76.3794
    endloop
  endfacet
  facet normal 0.278991 0 -0.960294
    outer loop
      vertex -20.8586 -28.5 53.1963
      vertex -16.7866 -26.501 54.3794
      vertex -16.7866 -28.5 54.3794
    endloop
  endfacet
  facet normal 0.278991 0 -0.960294
    outer loop
      vertex -16.7866 -26.501 54.3794
      vertex -20.8586 -28.5 53.1963
      vertex -20.8586 -26.501 53.1963
    endloop
  endfacet
  facet normal 0.612907 0 -0.790155
    outer loop
      vertex -43.0261 -28.5 41.0096
      vertex -39.6755 -26.501 43.6086
      vertex -39.6755 -28.5 43.6086
    endloop
  endfacet
  facet normal 0.612907 0 -0.790155
    outer loop
      vertex -39.6755 -26.501 43.6086
      vertex -43.0261 -28.5 41.0096
      vertex -43.0261 -26.501 41.0096
    endloop
  endfacet
  facet normal 0.891007 0 -0.453991
    outer loop
      vertex -59.1507 -28.5 21.5184
      vertex -61.0758 -26.501 17.7401
      vertex -59.1507 -26.501 21.5184
    endloop
  endfacet
  facet normal 0.891007 0 -0.453991
    outer loop
      vertex -61.0758 -26.501 17.7401
      vertex -59.1507 -28.5 21.5184
      vertex -61.0758 -28.5 17.7401
    endloop
  endfacet
  facet normal 0.790155 0 -0.612907
    outer loop
      vertex -52.0096 -28.5 32.0261
      vertex -54.6086 -26.501 28.6755
      vertex -52.0096 -26.501 32.0261
    endloop
  endfacet
  facet normal 0.790155 0 -0.612907
    outer loop
      vertex -54.6086 -26.501 28.6755
      vertex -52.0096 -28.5 32.0261
      vertex -54.6086 -28.5 28.6755
    endloop
  endfacet
  facet normal 0.960293 0 -0.278992
    outer loop
      vertex -64.1963 -28.5 9.85865
      vertex -65.3794 -26.501 5.78657
      vertex -64.1963 -26.501 9.85865
    endloop
  endfacet
  facet normal 0.960293 0 -0.278992
    outer loop
      vertex -65.3794 -26.501 5.78657
      vertex -64.1963 -28.5 9.85865
      vertex -65.3794 -28.5 5.78657
    endloop
  endfacet
  facet normal 0.612906 0 0.790156
    outer loop
      vertex -43.0261 -26.501 -63.0096
      vertex -39.6755 -28.5 -65.6086
      vertex -39.6755 -26.501 -65.6086
    endloop
  endfacet
  facet normal 0.612906 0 0.790156
    outer loop
      vertex -39.6755 -28.5 -65.6086
      vertex -43.0261 -26.501 -63.0096
      vertex -43.0261 -28.5 -63.0096
    endloop
  endfacet
  facet normal 0.338738 0 0.940881
    outer loop
      vertex -24.8484 -26.501 -73.7599
      vertex -20.8586 -28.5 -75.1963
      vertex -20.8586 -26.501 -75.1963
    endloop
  endfacet
  facet normal 0.338738 0 0.940881
    outer loop
      vertex -20.8586 -28.5 -75.1963
      vertex -24.8484 -26.501 -73.7599
      vertex -24.8484 -28.5 -73.7599
    endloop
  endfacet
  facet normal 0.218143 0 0.975917
    outer loop
      vertex -16.7866 -26.501 -76.3794
      vertex -12.6482 -28.5 -77.3044
      vertex -12.6482 -26.501 -77.3044
    endloop
  endfacet
  facet normal 0.218143 0 0.975917
    outer loop
      vertex -12.6482 -28.5 -77.3044
      vertex -16.7866 -26.501 -76.3794
      vertex -16.7866 -28.5 -76.3794
    endloop
  endfacet
  facet normal 0.0941086 0 0.995562
    outer loop
      vertex -8.45999 -26.501 -77.9677
      vertex -4.23836 -28.5 -78.3668
      vertex -4.23836 -26.501 -78.3668
    endloop
  endfacet
  facet normal 0.0941086 0 0.995562
    outer loop
      vertex -4.23836 -28.5 -78.3668
      vertex -8.45999 -26.501 -77.9677
      vertex -8.45999 -28.5 -77.9677
    endloop
  endfacet
  facet normal 0.750111 -0 0.661312
    outer loop
      vertex -52.0096 -28.5 -54.0261
      vertex -49.2054 -26.501 -57.2069
      vertex -52.0096 -26.501 -54.0261
    endloop
  endfacet
  facet normal 0.750111 0 0.661312
    outer loop
      vertex -49.2054 -26.501 -57.2069
      vertex -52.0096 -28.5 -54.0261
      vertex -49.2054 -28.5 -57.2069
    endloop
  endfacet
  facet normal -0.987688 0 -0.156435
    outer loop
      vertex 66.9677 -28.5 -2.54001
      vertex 66.3044 -26.501 1.64824
      vertex 66.9677 -26.501 -2.54001
    endloop
  endfacet
  facet normal -0.987688 -0 -0.156435
    outer loop
      vertex 66.3044 -26.501 1.64824
      vertex 66.9677 -28.5 -2.54001
      vertex 66.3044 -28.5 1.64824
    endloop
  endfacet
  facet normal -0.860742 0 -0.509041
    outer loop
      vertex 59.1507 -28.5 21.5184
      vertex 56.9921 -26.501 25.1683
      vertex 59.1507 -26.501 21.5184
    endloop
  endfacet
  facet normal -0.860742 -0 -0.509041
    outer loop
      vertex 56.9921 -26.501 25.1683
      vertex 59.1507 -28.5 21.5184
      vertex 56.9921 -28.5 25.1683
    endloop
  endfacet
  facet normal -0.750111 0 -0.661312
    outer loop
      vertex 52.0096 -28.5 32.0261
      vertex 49.2054 -26.501 35.2069
      vertex 52.0096 -26.501 32.0261
    endloop
  endfacet
  facet normal -0.750111 -0 -0.661312
    outer loop
      vertex 49.2054 -26.501 35.2069
      vertex 52.0096 -28.5 32.0261
      vertex 49.2054 -28.5 35.2069
    endloop
  endfacet
  facet normal -0.278991 0 -0.960294
    outer loop
      vertex 16.7866 -28.5 54.3794
      vertex 20.8586 -26.501 53.1963
      vertex 20.8586 -28.5 53.1963
    endloop
  endfacet
  facet normal -0.278991 0 -0.960294
    outer loop
      vertex 20.8586 -26.501 53.1963
      vertex 16.7866 -28.5 54.3794
      vertex 16.7866 -26.501 54.3794
    endloop
  endfacet
  facet normal -0.453991 0 -0.891007
    outer loop
      vertex 28.7401 -28.5 50.0758
      vertex 32.5184 -26.501 48.1507
      vertex 32.5184 -28.5 48.1507
    endloop
  endfacet
  facet normal -0.453991 0 -0.891007
    outer loop
      vertex 32.5184 -26.501 48.1507
      vertex 28.7401 -28.5 50.0758
      vertex 28.7401 -26.501 50.0758
    endloop
  endfacet
  facet normal -0.612907 0 -0.790155
    outer loop
      vertex 39.6755 -28.5 43.6086
      vertex 43.0261 -26.501 41.0096
      vertex 43.0261 -28.5 41.0096
    endloop
  endfacet
  facet normal -0.612907 0 -0.790155
    outer loop
      vertex 43.0261 -26.501 41.0096
      vertex 39.6755 -28.5 43.6086
      vertex 39.6755 -26.501 43.6086
    endloop
  endfacet
  facet normal -0.995562 0 0.0941086
    outer loop
      vertex 66.9677 -28.5 -19.46
      vertex 67.3668 -26.501 -15.2384
      vertex 66.9677 -26.501 -19.46
    endloop
  endfacet
  facet normal -0.995562 0 0.0941086
    outer loop
      vertex 67.3668 -26.501 -15.2384
      vertex 66.9677 -28.5 -19.46
      vertex 67.3668 -28.5 -15.2384
    endloop
  endfacet
  facet normal -0.940881 0 0.338738
    outer loop
      vertex 62.7599 -28.5 -35.8484
      vertex 64.1963 -26.501 -31.8586
      vertex 62.7599 -26.501 -35.8484
    endloop
  endfacet
  facet normal -0.940881 0 0.338738
    outer loop
      vertex 64.1963 -26.501 -31.8586
      vertex 62.7599 -28.5 -35.8484
      vertex 64.1963 -28.5 -31.8586
    endloop
  endfacet
  facet normal -0.960293 0 0.278992
    outer loop
      vertex 64.1963 -28.5 -31.8586
      vertex 65.3794 -26.501 -27.7866
      vertex 64.1963 -26.501 -31.8586
    endloop
  endfacet
  facet normal -0.960293 0 0.278992
    outer loop
      vertex 65.3794 -26.501 -27.7866
      vertex 64.1963 -28.5 -31.8586
      vertex 65.3794 -28.5 -27.7866
    endloop
  endfacet
  facet normal -0.917755 0 0.397148
    outer loop
      vertex 61.0758 -28.5 -39.7401
      vertex 62.7599 -26.501 -35.8484
      vertex 61.0758 -26.501 -39.7401
    endloop
  endfacet
  facet normal -0.917755 0 0.397148
    outer loop
      vertex 62.7599 -26.501 -35.8484
      vertex 61.0758 -28.5 -39.7401
      vertex 62.7599 -28.5 -35.8484
    endloop
  endfacet
  facet normal -0.860742 0 0.509041
    outer loop
      vertex 56.9921 -28.5 -47.1683
      vertex 59.1507 -26.501 -43.5184
      vertex 56.9921 -26.501 -47.1683
    endloop
  endfacet
  facet normal -0.860742 0 0.509041
    outer loop
      vertex 59.1507 -26.501 -43.5184
      vertex 56.9921 -28.5 -47.1683
      vertex 59.1507 -28.5 -43.5184
    endloop
  endfacet
  facet normal -0.661312 0 0.750111
    outer loop
      vertex 43.0261 -26.501 -63.0096
      vertex 46.2069 -28.5 -60.2054
      vertex 46.2069 -26.501 -60.2054
    endloop
  endfacet
  facet normal -0.661312 0 0.750111
    outer loop
      vertex 46.2069 -28.5 -60.2054
      vertex 43.0261 -26.501 -63.0096
      vertex 43.0261 -28.5 -63.0096
    endloop
  endfacet
  facet normal -0.218143 0 0.975917
    outer loop
      vertex 12.6482 -26.501 -77.3044
      vertex 16.7866 -28.5 -76.3794
      vertex 16.7866 -26.501 -76.3794
    endloop
  endfacet
  facet normal -0.218143 0 0.975917
    outer loop
      vertex 16.7866 -28.5 -76.3794
      vertex 12.6482 -26.501 -77.3044
      vertex 12.6482 -28.5 -77.3044
    endloop
  endfacet
  facet normal -0.338738 0 0.940881
    outer loop
      vertex 20.8586 -26.501 -75.1963
      vertex 24.8484 -28.5 -73.7599
      vertex 24.8484 -26.501 -73.7599
    endloop
  endfacet
  facet normal -0.338738 0 0.940881
    outer loop
      vertex 24.8484 -28.5 -73.7599
      vertex 20.8586 -26.501 -75.1963
      vertex 20.8586 -28.5 -75.1963
    endloop
  endfacet
  facet normal 0.750111 0 -0.661312
    outer loop
      vertex -49.2054 -28.5 35.2069
      vertex -52.0096 -26.501 32.0261
      vertex -49.2054 -26.501 35.2069
    endloop
  endfacet
  facet normal 0.750111 0 -0.661312
    outer loop
      vertex -52.0096 -26.501 32.0261
      vertex -49.2054 -28.5 35.2069
      vertex -52.0096 -28.5 32.0261
    endloop
  endfacet
  facet normal 0.860742 0 -0.509041
    outer loop
      vertex -56.9921 -28.5 25.1683
      vertex -59.1507 -26.501 21.5184
      vertex -56.9921 -26.501 25.1683
    endloop
  endfacet
  facet normal 0.860742 0 -0.509041
    outer loop
      vertex -59.1507 -26.501 21.5184
      vertex -56.9921 -28.5 25.1683
      vertex -59.1507 -28.5 21.5184
    endloop
  endfacet
  facet normal 0.940881 0 -0.338738
    outer loop
      vertex -62.7599 -28.5 13.8484
      vertex -64.1963 -26.501 9.85865
      vertex -62.7599 -26.501 13.8484
    endloop
  endfacet
  facet normal 0.940881 0 -0.338738
    outer loop
      vertex -64.1963 -26.501 9.85865
      vertex -62.7599 -28.5 13.8484
      vertex -64.1963 -28.5 9.85865
    endloop
  endfacet
  facet normal 0.975917 -0 0.218143
    outer loop
      vertex -66.3044 -28.5 -23.6482
      vertex -65.3794 -26.501 -27.7866
      vertex -66.3044 -26.501 -23.6482
    endloop
  endfacet
  facet normal 0.975917 0 0.218143
    outer loop
      vertex -65.3794 -26.501 -27.7866
      vertex -66.3044 -28.5 -23.6482
      vertex -65.3794 -28.5 -27.7866
    endloop
  endfacet
  facet normal 0.999507 -0 0.0314103
    outer loop
      vertex -67.5 -28.5 -11
      vertex -67.3668 -26.501 -15.2384
      vertex -67.5 -26.501 -11
    endloop
  endfacet
  facet normal 0.999507 0 0.0314103
    outer loop
      vertex -67.3668 -26.501 -15.2384
      vertex -67.5 -28.5 -11
      vertex -67.3668 -28.5 -15.2384
    endloop
  endfacet
  facet normal 0.995562 -0 0.0941086
    outer loop
      vertex -67.3668 -28.5 -15.2384
      vertex -66.9677 -26.501 -19.46
      vertex -67.3668 -26.501 -15.2384
    endloop
  endfacet
  facet normal 0.995562 0 0.0941086
    outer loop
      vertex -66.9677 -26.501 -19.46
      vertex -67.3668 -28.5 -15.2384
      vertex -66.9677 -28.5 -19.46
    endloop
  endfacet
  facet normal 0.509042 0 0.860742
    outer loop
      vertex -36.1683 -26.501 -67.9921
      vertex -32.5184 -28.5 -70.1507
      vertex -32.5184 -26.501 -70.1507
    endloop
  endfacet
  facet normal 0.509042 0 0.860742
    outer loop
      vertex -32.5184 -28.5 -70.1507
      vertex -36.1683 -26.501 -67.9921
      vertex -36.1683 -28.5 -67.9921
    endloop
  endfacet
  facet normal 0.661312 0 0.750111
    outer loop
      vertex -46.2069 -26.501 -60.2054
      vertex -43.0261 -28.5 -63.0096
      vertex -43.0261 -26.501 -63.0096
    endloop
  endfacet
  facet normal 0.661312 0 0.750111
    outer loop
      vertex -43.0261 -28.5 -63.0096
      vertex -46.2069 -26.501 -60.2054
      vertex -46.2069 -28.5 -60.2054
    endloop
  endfacet
  facet normal 0.707107 -0 0.707107
    outer loop
      vertex -49.2054 -28.5 -57.2069
      vertex -46.2069 -26.501 -60.2054
      vertex -49.2054 -26.501 -57.2069
    endloop
  endfacet
  facet normal 0.707107 0 0.707107
    outer loop
      vertex -46.2069 -26.501 -60.2054
      vertex -49.2054 -28.5 -57.2069
      vertex -46.2069 -28.5 -60.2054
    endloop
  endfacet
  facet normal 0.82708 -0 0.562084
    outer loop
      vertex -56.9921 -28.5 -47.1683
      vertex -54.6086 -26.501 -50.6755
      vertex -56.9921 -26.501 -47.1683
    endloop
  endfacet
  facet normal 0.82708 0 0.562084
    outer loop
      vertex -54.6086 -26.501 -50.6755
      vertex -56.9921 -28.5 -47.1683
      vertex -54.6086 -28.5 -50.6755
    endloop
  endfacet
  facet normal 0.790155 -0 0.612907
    outer loop
      vertex -54.6086 -28.5 -50.6755
      vertex -52.0096 -26.501 -54.0261
      vertex -54.6086 -26.501 -50.6755
    endloop
  endfacet
  facet normal 0.790155 0 0.612907
    outer loop
      vertex -52.0096 -26.501 -54.0261
      vertex -54.6086 -28.5 -50.6755
      vertex -52.0096 -28.5 -54.0261
    endloop
  endfacet
  facet normal 0.860742 -0 0.509041
    outer loop
      vertex -59.1507 -28.5 -43.5184
      vertex -56.9921 -26.501 -47.1683
      vertex -59.1507 -26.501 -43.5184
    endloop
  endfacet
  facet normal 0.860742 0 0.509041
    outer loop
      vertex -56.9921 -26.501 -47.1683
      vertex -59.1507 -28.5 -43.5184
      vertex -56.9921 -28.5 -47.1683
    endloop
  endfacet
  facet normal 0.940881 -0 0.338738
    outer loop
      vertex -64.1963 -28.5 -31.8586
      vertex -62.7599 -26.501 -35.8484
      vertex -64.1963 -26.501 -31.8586
    endloop
  endfacet
  facet normal 0.940881 0 0.338738
    outer loop
      vertex -62.7599 -26.501 -35.8484
      vertex -64.1963 -28.5 -31.8586
      vertex -62.7599 -28.5 -35.8484
    endloop
  endfacet
  facet normal 0.917755 -0 0.397148
    outer loop
      vertex -62.7599 -28.5 -35.8484
      vertex -61.0758 -26.501 -39.7401
      vertex -62.7599 -26.501 -35.8484
    endloop
  endfacet
  facet normal 0.917755 0 0.397148
    outer loop
      vertex -61.0758 -26.501 -39.7401
      vertex -62.7599 -28.5 -35.8484
      vertex -61.0758 -28.5 -39.7401
    endloop
  endfacet
  facet normal -0.995562 0 -0.0941086
    outer loop
      vertex 67.3668 -28.5 -6.76164
      vertex 66.9677 -26.501 -2.54001
      vertex 67.3668 -26.501 -6.76164
    endloop
  endfacet
  facet normal -0.995562 -0 -0.0941086
    outer loop
      vertex 66.9677 -26.501 -2.54001
      vertex 67.3668 -28.5 -6.76164
      vertex 66.9677 -28.5 -2.54001
    endloop
  endfacet
  facet normal -0.999507 0 0.0314103
    outer loop
      vertex 67.3668 -28.5 -15.2384
      vertex 67.5 -26.501 -11
      vertex 67.3668 -26.501 -15.2384
    endloop
  endfacet
  facet normal -0.999507 0 0.0314103
    outer loop
      vertex 67.5 -26.501 -11
      vertex 67.3668 -28.5 -15.2384
      vertex 67.5 -28.5 -11
    endloop
  endfacet
  facet normal -0.891007 0 0.453991
    outer loop
      vertex 59.1507 -28.5 -43.5184
      vertex 61.0758 -26.501 -39.7401
      vertex 59.1507 -26.501 -43.5184
    endloop
  endfacet
  facet normal -0.891007 0 0.453991
    outer loop
      vertex 61.0758 -26.501 -39.7401
      vertex 59.1507 -28.5 -43.5184
      vertex 61.0758 -28.5 -39.7401
    endloop
  endfacet
  facet normal -0.82708 0 0.562084
    outer loop
      vertex 54.6086 -28.5 -50.6755
      vertex 56.9921 -26.501 -47.1683
      vertex 54.6086 -26.501 -50.6755
    endloop
  endfacet
  facet normal -0.82708 0 0.562084
    outer loop
      vertex 56.9921 -26.501 -47.1683
      vertex 54.6086 -28.5 -50.6755
      vertex 56.9921 -28.5 -47.1683
    endloop
  endfacet
  facet normal -0.790155 0 0.612907
    outer loop
      vertex 52.0096 -28.5 -54.0261
      vertex 54.6086 -26.501 -50.6755
      vertex 52.0096 -26.501 -54.0261
    endloop
  endfacet
  facet normal -0.790155 0 0.612907
    outer loop
      vertex 54.6086 -26.501 -50.6755
      vertex 52.0096 -28.5 -54.0261
      vertex 54.6086 -28.5 -50.6755
    endloop
  endfacet
  facet normal 0.0941086 0 -0.995562
    outer loop
      vertex -8.45999 -28.5 55.9677
      vertex -4.23836 -26.501 56.3668
      vertex -4.23836 -28.5 56.3668
    endloop
  endfacet
  facet normal 0.0941086 0 -0.995562
    outer loop
      vertex -4.23836 -26.501 56.3668
      vertex -8.45999 -28.5 55.9677
      vertex -8.45999 -26.501 55.9677
    endloop
  endfacet
  facet normal 0.218143 0 -0.975917
    outer loop
      vertex -16.7866 -28.5 54.3794
      vertex -12.6482 -26.501 55.3044
      vertex -12.6482 -28.5 55.3044
    endloop
  endfacet
  facet normal 0.218143 0 -0.975917
    outer loop
      vertex -12.6482 -26.501 55.3044
      vertex -16.7866 -28.5 54.3794
      vertex -16.7866 -26.501 54.3794
    endloop
  endfacet
  facet normal 0.397148 0 -0.917755
    outer loop
      vertex -28.7401 -28.5 50.0758
      vertex -24.8484 -26.501 51.7599
      vertex -24.8484 -28.5 51.7599
    endloop
  endfacet
  facet normal 0.397148 0 -0.917755
    outer loop
      vertex -24.8484 -26.501 51.7599
      vertex -28.7401 -28.5 50.0758
      vertex -28.7401 -26.501 50.0758
    endloop
  endfacet
  facet normal 0.562084 0 -0.82708
    outer loop
      vertex -39.6755 -28.5 43.6086
      vertex -36.1683 -26.501 45.9921
      vertex -36.1683 -28.5 45.9921
    endloop
  endfacet
  facet normal 0.562084 0 -0.82708
    outer loop
      vertex -36.1683 -26.501 45.9921
      vertex -39.6755 -28.5 43.6086
      vertex -39.6755 -26.501 43.6086
    endloop
  endfacet
  facet normal 0.987688 0 -0.156435
    outer loop
      vertex -66.3044 -28.5 1.64824
      vertex -66.9677 -26.501 -2.54001
      vertex -66.3044 -26.501 1.64824
    endloop
  endfacet
  facet normal 0.987688 0 -0.156435
    outer loop
      vertex -66.9677 -26.501 -2.54001
      vertex -66.3044 -28.5 1.64824
      vertex -66.9677 -28.5 -2.54001
    endloop
  endfacet
  facet normal 0.960293 -0 0.278992
    outer loop
      vertex -65.3794 -28.5 -27.7866
      vertex -64.1963 -26.501 -31.8586
      vertex -65.3794 -26.501 -27.7866
    endloop
  endfacet
  facet normal 0.960293 0 0.278992
    outer loop
      vertex -64.1963 -26.501 -31.8586
      vertex -65.3794 -28.5 -27.7866
      vertex -64.1963 -28.5 -31.8586
    endloop
  endfacet
  facet normal 0.562084 0 0.82708
    outer loop
      vertex -39.6755 -26.501 -65.6086
      vertex -36.1683 -28.5 -67.9921
      vertex -36.1683 -26.501 -67.9921
    endloop
  endfacet
  facet normal 0.562084 0 0.82708
    outer loop
      vertex -36.1683 -28.5 -67.9921
      vertex -39.6755 -26.501 -65.6086
      vertex -39.6755 -28.5 -65.6086
    endloop
  endfacet
  facet normal 1 0 0
    outer loop
      vertex 71.5 -2 60.5
      vertex 71.5 -7.99121 -56
      vertex 71.5 -2 -56
    endloop
  endfacet
  facet normal 1 0 0
    outer loop
      vertex 71.5 -26.501 -80.5
      vertex 71.5 -7.99121 -56
      vertex 71.5 -26.501 60.5
    endloop
  endfacet
  facet normal 1 -0 0
    outer loop
      vertex 71.5 -26.501 60.5
      vertex 71.5 -7.99121 -56
      vertex 71.5 -2 60.5
    endloop
  endfacet
  facet normal 1 -0 0
    outer loop
      vertex 71.5 -7.99121 -61
      vertex 71.5 -2 -80.5
      vertex 71.5 -2 -61
    endloop
  endfacet
  facet normal 1 0 0
    outer loop
      vertex 71.5 -7.99121 -61
      vertex 71.5 -26.501 -80.5
      vertex 71.5 -2 -80.5
    endloop
  endfacet
  facet normal 1 0 0
    outer loop
      vertex 71.5 -7.99121 -56
      vertex 71.5 -26.501 -80.5
      vertex 71.5 -7.99121 -61
    endloop
  endfacet
  facet normal 0 0 -1
    outer loop
      vertex -78.5 -26.501 80.5
      vertex 78.5 -2 80.5
      vertex 78.5 -26.501 80.5
    endloop
  endfacet
  facet normal -0 0 -1
    outer loop
      vertex 78.5 -2 80.5
      vertex -78.5 -26.501 80.5
      vertex -78.5 -2 80.5
    endloop
  endfacet
  facet normal -1 0 0
    outer loop
      vertex 78.5 -2 -80.5
      vertex 78.5 -6.75692 -61
      vertex 78.5 -2 -61
    endloop
  endfacet
  facet normal -1 -0 0
    outer loop
      vertex 78.5 -6.75692 -61
      vertex 78.5 -26.501 -80.5
      vertex 78.5 -6.75692 -56
    endloop
  endfacet
  facet normal -1 0 0
    outer loop
      vertex 78.5 -26.501 -80.5
      vertex 78.5 -6.75692 -61
      vertex 78.5 -2 -80.5
    endloop
  endfacet
  facet normal -1 0 0
    outer loop
      vertex 78.5 -6.75692 -56
      vertex 78.5 -2 80.5
      vertex 78.5 -2 -56
    endloop
  endfacet
  facet normal -1 0 0
    outer loop
      vertex 78.5 -26.501 80.5
      vertex 78.5 -6.75692 -56
      vertex 78.5 -26.501 -80.5
    endloop
  endfacet
  facet normal -1 0 0
    outer loop
      vertex 78.5 -6.75692 -56
      vertex 78.5 -26.501 80.5
      vertex 78.5 -2 80.5
    endloop
  endfacet
  facet normal -0 0 1
    outer loop
      vertex 71.5 -2 -80.5
      vertex 78.5 -26.501 -80.5
      vertex 78.5 -2 -80.5
    endloop
  endfacet
  facet normal 0 0 1
    outer loop
      vertex 78.5 -26.501 -80.5
      vertex 71.5 -2 -80.5
      vertex 71.5 -26.501 -80.5
    endloop
  endfacet
  facet normal 0 1 0
    outer loop
      vertex 78.5 -26.501 80.5
      vertex 71.5 -26.501 60.5
      vertex -78.5 -26.501 80.5
    endloop
  endfacet
  facet normal 0 1 -0
    outer loop
      vertex 78.5 -26.501 -80.5
      vertex 71.5 -26.501 60.5
      vertex 78.5 -26.501 80.5
    endloop
  endfacet
  facet normal 0 1 0
    outer loop
      vertex 71.5 -26.501 60.5
      vertex 78.5 -26.501 -80.5
      vertex 71.5 -26.501 -80.5
    endloop
  endfacet
  facet normal 0 1 -0
    outer loop
      vertex -71.5 -26.501 60.5
      vertex -78.5 -26.501 80.5
      vertex 71.5 -26.501 60.5
    endloop
  endfacet
  facet normal 0 1 0
    outer loop
      vertex -78.5 -26.501 -80.5
      vertex -71.5 -26.501 60.5
      vertex -71.5 -26.501 -80.5
    endloop
  endfacet
  facet normal 0 1 0
    outer loop
      vertex -71.5 -26.501 60.5
      vertex -78.5 -26.501 -80.5
      vertex -78.5 -26.501 80.5
    endloop
  endfacet
  facet normal 1 -0 0
    outer loop
      vertex -78.5 -26.501 80.5
      vertex -78.5 -2 -80.5
      vertex -78.5 -2 80.5
    endloop
  endfacet
  facet normal 1 0 0
    outer loop
      vertex -78.5 -2 -80.5
      vertex -78.5 -26.501 80.5
      vertex -78.5 -26.501 -80.5
    endloop
  endfacet
  facet normal -1 0 0
    outer loop
      vertex -71.5 -26.501 -80.5
      vertex -71.5 -2 60.5
      vertex -71.5 -2 -80.5
    endloop
  endfacet
  facet normal -1 -0 0
    outer loop
      vertex -71.5 -2 60.5
      vertex -71.5 -26.501 -80.5
      vertex -71.5 -26.501 60.5
    endloop
  endfacet
  facet normal -0 0 1
    outer loop
      vertex -78.5 -2 -80.5
      vertex -71.5 -26.501 -80.5
      vertex -71.5 -2 -80.5
    endloop
  endfacet
  facet normal 0 0 1
    outer loop
      vertex -71.5 -26.501 -80.5
      vertex -78.5 -2 -80.5
      vertex -78.5 -26.501 -80.5
    endloop
  endfacet
  facet normal -0 0 1
    outer loop
      vertex -71.5 -2 60.5
      vertex 71.5 -26.501 60.5
      vertex 71.5 -2 60.5
    endloop
  endfacet
  facet normal 0 0 1
    outer loop
      vertex 71.5 -26.501 60.5
      vertex -71.5 -2 60.5
      vertex -71.5 -26.501 60.5
    endloop
  endfacet
  facet normal 0 0 -1
    outer loop
      vertex 69.5 -2 -56
      vertex 71.5 -7.99121 -56
      vertex 69.5 -8.34386 -56
    endloop
  endfacet
  facet normal 0 0 -1
    outer loop
      vertex 71.5 -7.99121 -56
      vertex 69.5 -2 -56
      vertex 71.5 -2 -56
    endloop
  endfacet
  facet normal 0 0 -1
    outer loop
      vertex 78.5 -2 -56
      vertex 80.5 -6.40427 -56
      vertex 78.5 -6.75692 -56
    endloop
  endfacet
  facet normal 0 0 -1
    outer loop
      vertex 80.5 -6.40427 -56
      vertex 78.5 -2 -56
      vertex 80.5 -2 -56
    endloop
  endfacet
  facet normal -0 0 1
    outer loop
      vertex 69.5 -2 -61
      vertex 71.5 -7.99121 -61
      vertex 71.5 -2 -61
    endloop
  endfacet
  facet normal 0 0 1
    outer loop
      vertex 71.5 -7.99121 -61
      vertex 69.5 -2 -61
      vertex 69.5 -8.34386 -61
    endloop
  endfacet
  facet normal -0 0 1
    outer loop
      vertex 78.5 -2 -61
      vertex 80.5 -6.40427 -61
      vertex 80.5 -2 -61
    endloop
  endfacet
  facet normal 0 0 1
    outer loop
      vertex 80.5 -6.40427 -61
      vertex 78.5 -2 -61
      vertex 78.5 -6.75692 -61
    endloop
  endfacet
  facet normal -0.173648 0.984808 0
    outer loop
      vertex 71.5 -7.99121 -61
      vertex 69.5 -8.34386 -56
      vertex 71.5 -7.99121 -56
    endloop
  endfacet
  facet normal -0.173648 0.984808 0
    outer loop
      vertex 69.5 -8.34386 -56
      vertex 71.5 -7.99121 -61
      vertex 69.5 -8.34386 -61
    endloop
  endfacet
  facet normal -0.173648 0.984808 0
    outer loop
      vertex 80.5 -6.40427 -61
      vertex 78.5 -6.75692 -56
      vertex 80.5 -6.40427 -56
    endloop
  endfacet
  facet normal -0.173648 0.984808 0
    outer loop
      vertex 78.5 -6.75692 -56
      vertex 80.5 -6.40427 -61
      vertex 78.5 -6.75692 -61
    endloop
  endfacet
endsolid OpenSCAD_Model
